<?xml version="1.0" encoding="UTF-8"?>
<svg id="_レイヤー_1" data-name="レイヤー_1" xmlns="http://www.w3.org/2000/svg" xmlns:xlink="http://www.w3.org/1999/xlink" version="1.1" viewBox="0 0 1600 300">
  <!-- Generator: Adobe Illustrator 30.0.0, SVG Export Plug-In . SVG Version: 2.1.1 Build 123)  -->
  <defs>
    <style>
      .st0, .st1, .st2, .st3 {
        fill: none;
      }

      .st4 {
        fill: #221815;
      }

      .st5 {
        fill: #f8e7ce;
      }

      .st6 {
        fill: #c91e1d;
      }

      .st1, .st2 {
        stroke-linecap: round;
        stroke-linejoin: round;
      }

      .st1, .st2, .st3 {
        stroke: #221714;
      }

      .st1, .st3 {
        stroke-width: 2.44px;
      }

      .st7 {
        fill: #00468c;
      }

      .st8 {
        fill: #9e9d9e;
      }

      .st9 {
        fill: #2595c7;
      }

      .st10 {
        fill: #fff;
      }

      .st2 {
        stroke-width: 2.06px;
      }

      .st11 {
        fill: #221714;
      }

      .st12 {
        clip-path: url(#clippath);
      }

      .st13 {
        fill: #eec0b7;
      }
    </style>
    <clipPath id="clippath">
      <polygon class="st0" points="1366.79 49.37 1366.73 248.31 1578.63 246.9 1578.68 47.96 1366.79 49.37"/>
    </clipPath>
  </defs>
  <g class="st12">
    <path class="st11" d="M1565.83,193.14c-1.04-4.01-1.75-10.99,3.93-16.45.13-.21,1.23-2.16.46-4.66-.69-2.21-2.57-4.04-5.99-5.57-.1-.01-.91-.17-2.13-.15-2.71.04-9.4,1.07-12.85,9.58-.11.24-2.02,5.05-1.16,10.73-.94-.16-2.31-.37-4.35-.68-1.38-.22-2.52-.39-2.69-.43-3.94-1.06-7.96,1.01-8.86,4.42-.4,1.63-.11,3.31.79,4.76-1.49.83-2.58,2.15-3.01,3.77-.43,1.62-.12,3.3.77,4.75-1.5.83-2.59,2.16-3.01,3.79-.28,1.08-.22,2.2.11,3.25-2.75-2.77-5.71-5.35-8.87-7.74,3.45-4.76,6.25-9.95,8.29-15.46l2.68.7c.15.04.3.05.47.05.66-.01,1.26-.41,1.53-1.04l6.4-15.48c.19-.46.17-.97-.05-1.41-.22-.44-.61-.75-1.08-.88l-2.16-.57c4.01-10.26,5.95-21.31,5.59-32.65-1.41-44.81-39.03-80.64-83.84-79.85l-1.17.02c-22.01.71-42.44,9.92-57.51,25.97-15.08,16.06-22.99,37.03-22.29,59.04.36,11.75,3.23,22.89,8.06,32.91-.42.17-.74.47-.91.89-.18.44-.16.96.04,1.4l7.37,15.05c.3.62.92.98,1.57.96.16,0,.33-.03.49-.08l.27-.09c2.6,5.64,6,10.87,10.09,15.56-.52.48-1.03.95-1.54,1.44-15.81,15.09-24.16,34.77-23.5,55.42.22,6.82,1.43,13.55,3.6,20.02.2.6.71,1.04,1.34,1.14.4.07,40.34,6.26,84.04,7.65,3.14.1,6.28.13,9.41.07,32.31-.56,67.2-9.34,70.65-13.4.05-.06.09-.11.14-.17,8.42-3.91,15.51-14.62,17.72-27.84,1.69-10.23.11-19.9-3.74-26.73,7.95-4.87,10.61-13.38,10.69-13.69.99-7.78-.95-13.96-5.78-18.33"/>
    <path class="st2" d="M1565.83,193.14c-1.04-4.01-1.75-10.99,3.93-16.45.13-.21,1.23-2.16.46-4.66-.69-2.21-2.57-4.04-5.99-5.57-.1-.01-.91-.17-2.13-.15-2.71.04-9.4,1.07-12.85,9.58-.11.24-2.02,5.05-1.16,10.73-.94-.16-2.31-.37-4.35-.68-1.38-.22-2.52-.39-2.69-.43-3.94-1.06-7.96,1.01-8.86,4.42-.4,1.63-.11,3.31.79,4.76-1.49.83-2.58,2.15-3.01,3.77-.43,1.62-.12,3.3.77,4.75-1.5.83-2.59,2.16-3.01,3.79-.28,1.08-.22,2.2.11,3.25-2.75-2.77-5.71-5.35-8.87-7.74,3.45-4.76,6.25-9.95,8.29-15.46l2.68.7c.15.04.3.05.47.05.66-.01,1.26-.41,1.53-1.04l6.4-15.48c.19-.46.17-.97-.05-1.41-.22-.44-.61-.75-1.08-.88l-2.16-.57c4.01-10.26,5.95-21.31,5.59-32.65-1.41-44.81-39.03-80.64-83.84-79.85l-1.17.02c-22.01.71-42.44,9.92-57.51,25.97-15.08,16.06-22.99,37.03-22.29,59.04.36,11.75,3.23,22.89,8.06,32.91-.42.17-.74.47-.91.89-.18.44-.16.96.04,1.4l7.37,15.05c.3.62.92.98,1.57.96.16,0,.33-.03.49-.08l.27-.09c2.6,5.64,6,10.87,10.09,15.56-.52.48-1.03.95-1.54,1.44-15.81,15.09-24.16,34.77-23.5,55.42.22,6.82,1.43,13.55,3.6,20.02.2.6.71,1.04,1.34,1.14.4.07,40.34,6.26,84.04,7.65,3.14.1,6.28.13,9.41.07,32.31-.56,67.2-9.34,70.65-13.4.05-.06.09-.11.14-.17,8.42-3.91,15.51-14.62,17.72-27.84,1.69-10.23.11-19.9-3.74-26.73,7.95-4.87,10.61-13.38,10.69-13.69.99-7.78-.95-13.96-5.78-18.33Z"/>
    <path class="st9" d="M1466.83,291.52c37.08,1.2,75.89-9.44,78.69-12.73,6.36-7.47,2.5-12.92,2.27-19.72-1.31-41.68-40.03-74.3-86.54-72.83-46.46,1.46-83.09,36.42-81.78,78.12.22,6.79,1.43,13.34,3.52,19.53,0,0,39.73,6.23,83.84,7.64"/>
    <path class="st11" d="M1476.16,293.29h0c-3.13.05-6.27.03-9.41-.07-43.7-1.4-83.64-7.59-84.04-7.65-.63-.1-1.14-.54-1.34-1.14-2.17-6.47-3.39-13.2-3.6-20.02-.66-20.64,7.69-40.32,23.5-55.42,15.75-15.04,37.03-23.73,59.93-24.45l1.36-.02c46.62-.81,85.61,32.61,86.93,74.5.05,1.74.37,3.39.67,5,.9,4.82,1.83,9.8-3.35,15.87-3.45,4.06-38.33,12.83-70.65,13.4M1384.27,282.36c6.51.97,43.01,6.19,82.59,7.47,3.08.09,6.17.11,9.24.06,34.97-.61,65.92-9.97,68.14-12.22,4.1-4.83,3.42-8.45,2.58-13.03-.34-1.79-.67-3.59-.74-5.52-1.25-40.05-38.69-72-83.46-71.22l-1.32.04c-22.06.69-42.55,9.02-57.7,23.49-15.09,14.42-23.06,33.18-22.45,52.86.2,6.14,1.25,12.22,3.11,18.06"/>
    <path class="st10" d="M1444.63,251.56c4.94-.15,7.84-2.88,7.74-5.78-.08-2.8-3.11-4.3-7.05-4.16-5.84.18-7.55,3.2-8.11,4.12-.87,1.56-1.49,2.6-3.86,2.67-2.13.06-4.83-.82-4.91-3.32-.12-3.85,6.08-9.8,16.74-10.13,9.31-.29,15.98,3.86,16.18,10.37.16,5.19-4.16,7.72-5.81,8.68,1.9.77,6.9,2.73,7.1,9.09.25,7.57-7.32,12.96-16.69,13.24-10.24.31-18.12-5.43-18.26-9.35-.05-2.03,2.41-3.64,4.54-3.69,2.22-.06,3.42,1.06,4.97,2.79,1.27,1.38,2.46,2.41,5.21,3.11.79.21,1.95.43,3.26.4,2.78-.09,8.1-1.74,7.96-6.15-.12-4.23-4.89-5.54-8.02-5.44l-6.19.19c-2.87.09-4.15-1.79-4.21-3.17-.05-1.89,1.98-3.22,3.34-3.27l6.07-.18Z"/>
    <path class="st10" d="M1481.17,240.69c5.58-.18,7.5,3.08,7.61,6.58.09,2.34-.93,7.1-6.84,7.28-6.22.2-7.56-3.88-7.65-6.8-.06-1.5.17-6.86,6.88-7.07M1481.31,275.23c6.59-.67,10.2-1.64,13.49-5.88,3.37-4.31,4.08-10.54,3.9-16.29-.09-3.35-.7-7.7-2.72-11.86-1.45-2.96-5.94-7.65-14.74-7.38-8.23.25-16.06,5.13-15.77,14.18.22,7.13,5.42,13.11,15.52,12.79,3.31-.1,5.22-.82,6.24-1.25,1.34-.6,1.96-1.24,2.53-1.87.03,2.84.07,10.68-8.02,10.93-2.52.09-4.61-.31-7.42-3.12-2.01-2.07-2.98-2.09-4.02-2.06-1.74.06-4.37,1-4.3,3.29.04,1.06.46,2.27,1.88,3.76,3.89,4.15,9.02,4.54,13.44,4.77"/>
    <path class="st10" d="M1538.97,135.82c1.38,44.58-33.61,81.86-78.19,83.24-44.57,1.39-81.87-33.6-83.24-78.18-1.43-44.57,33.58-81.85,78.16-83.25,44.59-1.39,81.86,33.6,83.27,78.19"/>
    <path class="st11" d="M1459.67,220.79c-44.83.78-82.43-35.04-83.83-79.84-.7-22.01,7.2-42.98,22.29-59.04,15.07-16.05,35.5-25.27,57.51-25.97l1.17-.02c44.81-.79,82.43,35.05,83.84,79.85.69,22.02-7.23,42.99-22.3,59.03-15.08,16.06-35.51,25.28-57.53,25.97l-1.16.02ZM1456.87,59.29l-1.12.03c-21.11.66-40.7,9.52-55.15,24.9-14.46,15.4-22.04,35.5-21.38,56.61,1.35,42.96,37.4,77.31,80.39,76.56l1.11-.03c21.1-.66,40.69-9.5,55.15-24.9,14.45-15.4,22.05-35.5,21.39-56.6-1.36-42.98-37.41-77.33-80.39-76.58"/>
    <path class="st11" d="M1531.17,163.27c1.17,36.88-30.18,67.8-69.98,69.05-39.81,1.25-73.03-27.64-74.19-64.54-1.16-36.89,30.17-67.8,70-69.05,39.8-1.26,73.02,27.64,74.17,64.54"/>
    <path class="st5" d="M1526.36,156.61c1.18,37.27-28.09,68.43-65.36,69.6-37.26,1.16-68.41-28.09-69.61-65.37-1.15-37.27,28.09-68.42,65.37-69.58,37.26-1.18,68.44,28.09,69.6,65.35"/>
    <path class="st11" d="M1460.08,227.93c-37.6.67-69.18-29.41-70.38-67.03-1.18-38.14,28.87-70.14,67-71.33l.98-.03c37.62-.66,69.19,29.41,70.38,67.02.58,18.48-6.07,36.07-18.73,49.55-12.65,13.47-29.81,21.22-48.3,21.8l-.96.02ZM1457.75,92.93l-.93.03c-36.28,1.13-64.84,31.56-63.73,67.83,1.15,35.78,31.18,64.36,66.92,63.74l.93-.02c17.57-.55,33.89-7.91,45.92-20.73,12.02-12.81,18.35-29.55,17.81-47.12-1.13-35.76-31.14-64.36-66.92-63.73"/>
    <polygon class="st10" points="1509 82.73 1403.32 86.05 1389.32 121.25 1527.45 116.91 1509 82.73"/>
    <path class="st8" d="M1398.98,121.03c-3.73.13-4.23,1.9-1.1,3.94,0,0,29.57,19.34,60.52,18.37,30.95-.98,59.23-22.11,59.23-22.11,2.99-2.24,2.4-3.99-1.33-3.87l-117.32,3.67Z"/>
    <path class="st11" d="M1457.43,145.06c-30.75.54-59.27-17.88-60.46-18.66-2.81-1.84-3.04-3.5-2.75-4.58.31-1.06,1.38-2.36,4.71-2.48l117.32-3.66h0c3.4-.06,4.49,1.15,4.84,2.18.37,1.06.23,2.73-2.43,4.73-1.18.88-29.07,21.47-60.23,22.45l-1,.03ZM1397.91,122.85c.2.17.49.41.92.69.28.19,28.86,18.63,58.54,18.13l.97-.04c30.04-.94,57.99-21.57,58.28-21.78.4-.3.68-.56.87-.74-.24-.03-.56-.06-.98-.05l-117.48,3.67c-.49.02-.87.08-1.12.13"/>
    <polygon class="st8" points="1522.34 183.99 1530.38 186.11 1536.79 170.62 1527.29 168.12 1522.34 183.99"/>
    <path class="st11" d="M1530.42,187.8c-.17,0-.32,0-.47-.05l-8.04-2.11c-.44-.12-.82-.41-1.05-.82-.22-.4-.27-.89-.13-1.32l4.94-15.9c.27-.86,1.16-1.36,2.05-1.12l9.5,2.5c.47.13.86.45,1.08.88.22.44.24.95.05,1.41l-6.4,15.48c-.26.64-.87,1.03-1.53,1.04M1524.49,182.81l4.87,1.28,5.1-12.32-6.05-1.59-3.93,12.64Z"/>
    <polygon class="st8" points="1399.82 187.84 1391.93 190.46 1384.56 175.4 1393.88 172.29 1399.82 187.84"/>
    <path class="st11" d="M1391.96,192.16c-.65.02-1.27-.34-1.57-.96l-7.37-15.05c-.2-.44-.23-.96-.04-1.4.2-.46.57-.81,1.05-.96l9.32-3.1c.84-.3,1.79.15,2.11,1.01l5.94,15.54c.17.44.15.91-.05,1.34-.2.41-.57.73-1,.88l-7.9,2.63c-.17.05-.34.08-.49.08M1386.94,176.4l5.87,11.97,4.79-1.58-4.72-12.37-5.93,1.99Z"/>
    <polygon class="st11" points="1438.09 158.24 1405.64 159.27 1405.29 148.71 1437.74 147.69 1438.09 158.24"/>
    <path class="st11" d="M1405.67,160.97c-.94.02-1.71-.72-1.73-1.65l-.34-10.56c0-.45.15-.89.47-1.22.31-.33.73-.52,1.19-.53l32.45-1.03c.88.17,1.72.71,1.74,1.65l.35,10.55c.03.45-.15.88-.45,1.22-.31.34-.74.54-1.19.54l-32.47,1.01h0ZM1407.05,150.35l.24,7.16,29.05-.92-.22-7.15-29.06.91Z"/>
    <polygon class="st11" points="1509.79 156 1477.35 157.01 1477 146.46 1509.46 145.43 1509.79 156"/>
    <path class="st11" d="M1477.37,158.72c-.93.02-1.7-.72-1.73-1.65l-.34-10.57c-.02-.44.15-.89.47-1.21.31-.33.72-.52,1.17-.53l32.47-1.04c.42.09.88.15,1.22.46.32.31.51.74.53,1.19l.34,10.57c.02.95-.71,1.73-1.66,1.75l-32.45,1.02h-.02ZM1478.76,148.1l.22,7.16,29.07-.91-.22-7.17-29.07.93Z"/>
    <path class="st11" d="M1428.84,180.45c.08,2.64-2,4.84-4.62,4.92-2.65.09-4.84-1.97-4.92-4.62-.1-2.64,1.98-4.84,4.61-4.92,2.64-.08,4.83,1.99,4.93,4.63"/>
    <path class="st11" d="M1499.03,178.25c.09,2.63-1.99,4.85-4.63,4.93-2.64.08-4.84-1.99-4.92-4.63-.07-2.64,2-4.85,4.63-4.92,2.64-.09,4.86,1.97,4.93,4.62"/>
    <path class="st13" d="M1489.9,208.38c.1,3.53-2.68,6.51-6.21,6.62l-46.03,1.44c-3.54.11-6.5-2.68-6.63-6.22l-.18-5.27c-.1-3.54,2.7-6.52,6.22-6.62l46.05-1.46c3.51-.1,6.5,2.7,6.62,6.24l.16,5.28Z"/>
    <path class="st11" d="M1437.59,218.14c-4.42.08-8.12-3.45-8.25-7.87l-.17-5.26c-.06-2.16.72-4.23,2.21-5.82,1.49-1.59,3.5-2.5,5.66-2.56l46.05-1.45c4.53-.08,8.23,3.44,8.36,7.87l.17,5.27c.13,4.48-3.39,8.24-7.86,8.37l-46.03,1.45s-.11,0-.12,0M1483.25,198.57l-46.12,1.45c-1.25.05-2.42.57-3.28,1.49-.88.93-1.33,2.12-1.29,3.38l.18,5.28c.08,2.57,2.23,4.63,4.79,4.58l.03,1.69.04-1.69,46.05-1.45c2.59-.08,4.64-2.27,4.57-4.87l-.16-5.27c-.09-2.58-2.23-4.63-4.8-4.58"/>
    <line class="st13" x1="1439.23" y1="206.56" x2="1479.24" y2="205.31"/>
    <path class="st11" d="M1439.26,208.25c-.92.02-1.7-.71-1.72-1.65-.04-.93.7-1.72,1.64-1.74l40-1.25c.79,0,1.74.71,1.76,1.65.03.93-.71,1.72-1.65,1.74l-40.01,1.25s-.02,0-.03,0"/>
    <path class="st11" d="M1445.33,95.33c3.32-.14,5.27-2.14,5.36-4.35.04-2.16-1.7-3.23-4.2-3.17-3.69.14-5.04,2.38-5.48,3.09-.72,1.2-1.24,1.94-2.84,2.01-1.43.04-2.97-.61-2.67-2.53.62-2.98,5-7.33,11.4-7.63,5.62-.1,9.4,2.94,9.56,7.93.04,3.98-2.8,5.82-3.96,6.54,1.26.59,4.59,2.02,4.81,6.88.05,5.82-5.49,9.7-13.1,10.03-8.31.16-13.82-4.05-13.19-7.08.43-1.57,2.57-2.74,4.19-2.82,1.67-.04,2.37.79,3.31,2.12.8,1.06,1.55,1.82,3.61,2.35.59.18,1.43.34,2.44.31,2.14-.1,6.11-1.26,6.26-4.67.03-3.23-3.16-4.17-5.36-4.13-1.48.05-2.88.08-4.38.13-2.03.03-2.67-1.35-2.51-2.41.23-1.45,1.72-2.43,2.64-2.47,1.37-.04,2.7-.08,4.1-.13"/>
    <path class="st11" d="M1468.99,87.24c3.54-.06,5.13,2.3,5.78,4.97.41,1.78.48,5.24-3.69,5.45-4.43.08-5.59-2.9-5.88-5.11-.17-1.18-.47-5.1,3.79-5.31M1472.96,113.22c5.59-.52,8.78-1.24,10.75-4.45,1.9-3.32.67-7.85-.89-12.2-.93-2.55-2.32-5.71-4.39-8.9-1.51-2.25-4.77-5.69-10.1-5.61-4.94.22-9.31,3.69-8.91,10.63.45,5.45,4.09,9.8,11.69,9.67,2.48-.08,3.77-.61,4.5-.95.92-.46,1.27-.91,1.58-1.39.53,2.17,1.94,7.87-4.6,8.22-2.05.05-3.67-.21-6.05-2.36-1.69-1.57-2.35-1.59-3.11-1.55-1.29.05-3.13.72-3.06,2.48.08.81.4,1.69,1.53,2.84,3.18,3.14,7.22,3.41,11.06,3.56"/>
    <path class="st11" d="M1455.36,191.89c-.37.01-.76-.11-1.07-.36l-4.65-3.62c-.74-.58-.87-1.64-.29-2.38.57-.74,1.64-.87,2.37-.3l4.66,3.62c.74.59.87,1.64.3,2.39-.33.42-.82.65-1.32.65"/>
    <path class="st11" d="M1464.43,191.6c-.47,0-.96-.19-1.31-.57-.62-.7-.55-1.78.15-2.39l4.41-3.91c.69-.62,1.77-.57,2.4.15.63.7.56,1.77-.15,2.39l-4.41,3.91c-.32.28-.71.42-1.09.42"/>
    <path class="st9" d="M1523.14,245c-2.83,17.2,3.77,32.62,14.76,34.45,10.99,1.82,22.21-10.65,25.08-27.84,2.85-17.21-3.76-32.64-14.76-34.46-10.99-1.81-22.22,10.65-25.08,27.85"/>
    <path class="st11" d="M1540.3,281.32h0c-.89.02-1.8-.04-2.69-.2-11.89-1.97-19.13-18.31-16.14-36.41,2.98-17.92,15.01-31.25,27.03-29.25,11.92,1.98,19.15,18.31,16.16,36.42-2.77,16.6-13.23,29.24-24.36,29.44M1545.88,218.68c-9.52.16-18.57,11.6-21.05,26.59-2.68,16.26,3.3,30.83,13.35,32.51,10.16,1.64,20.45-10.36,23.14-26.44,2.68-16.25-3.3-30.83-13.36-32.51-.68-.11-1.39-.16-2.07-.15"/>
    <path class="st5" d="M1569.94,211.25c1.07-8.56-1.75-13.86-5.61-17.17-1.06-3.79-2.44-12.19,3.99-18.26,0,0,2.63-4.43-4.42-7.7,0,0-8.92-1.78-13.08,8.41,0,0-2.42,5.92-.52,12.14-.42-.03-.65-.04-.65-.04-.4-.16-8.6-1.38-9.01-1.48-3.07-.8-6.11.64-6.78,3.2-.49,1.92.45,3.92,2.23,5.14-2.15.2-3.96,1.48-4.45,3.4-.51,1.92.46,3.91,2.23,5.14-2.16.2-3.96,1.49-4.46,3.4-.56,2.13.71,4.35,2.87,5.52-2.47-.07-4.65,1.27-5.21,3.39-.67,2.58,1.27,5.3,4.33,6.11,30.9,14.3,38.55-11.19,38.55-11.19"/>
    <path class="st9" d="M1523.58,244.99c-2.83,17.2,3.76,32.62,14.76,34.45,10.99,1.82,22.22-10.65,25.08-27.84,2.87-17.21-3.76-32.64-14.75-34.46-10.99-1.81-22.22,10.65-25.08,27.85"/>
    <path class="st3" d="M1523.58,244.99c-2.83,17.2,3.76,32.62,14.76,34.45,10.99,1.82,22.22-10.65,25.08-27.84,2.87-17.21-3.76-32.64-14.75-34.46-10.99-1.81-22.22,10.65-25.08,27.85Z"/>
    <path class="st5" d="M1570.37,211.24c1.07-8.56-1.75-13.86-5.6-17.17-1.06-3.79-2.44-12.19,3.99-18.26,0,0,2.64-4.44-4.42-7.7,0,0-8.92-1.78-13.08,8.41,0,0-2.41,5.92-.52,12.14-.42-.03-.65-.04-.65-.04-.4-.16-8.6-1.38-9.01-1.48-3.07-.8-6.11.64-6.78,3.2-.49,1.92.45,3.92,2.23,5.14-2.15.2-3.96,1.48-4.45,3.4-.52,1.92.46,3.91,2.23,5.14-2.16.2-3.96,1.49-4.47,3.4-.56,2.13.72,4.35,2.89,5.52-2.48-.07-4.65,1.27-5.22,3.39-.67,2.58,1.28,5.3,4.35,6.11,30.9,14.3,38.54-11.19,38.54-11.19"/>
    <path class="st1" d="M1570.37,211.24c1.07-8.56-1.75-13.86-5.6-17.17-1.06-3.79-2.44-12.19,3.99-18.26,0,0,2.64-4.44-4.42-7.7,0,0-8.92-1.78-13.08,8.41,0,0-2.41,5.92-.52,12.14-.42-.03-.65-.04-.65-.04-.4-.16-8.6-1.38-9.01-1.48-3.07-.8-6.11.64-6.78,3.2-.49,1.92.45,3.92,2.23,5.14-2.15.2-3.96,1.48-4.45,3.4-.52,1.92.46,3.91,2.23,5.14-2.16.2-3.96,1.49-4.47,3.4-.56,2.13.72,4.35,2.89,5.52-2.48-.07-4.65,1.27-5.22,3.39-.67,2.58,1.28,5.3,4.35,6.11,30.9,14.3,38.54-11.19,38.54-11.19Z"/>
    <path class="st11" d="M1549.01,228.49h0c-5.49.1-11.67-1.41-18.33-4.5-3.68-.95-6.17-4.6-5.27-8.08.46-1.72,1.68-3.11,3.31-3.9-1.03-1.51-1.42-3.31-.97-5.01.42-1.64,1.51-2.97,3.01-3.79-.89-1.44-1.21-3.13-.78-4.75.42-1.62,1.52-2.95,3.01-3.77-.89-1.45-1.19-3.13-.79-4.76.9-3.41,4.92-5.48,8.86-4.42.17.04,1.31.21,2.69.43,2.03.31,3.41.52,4.35.68-.87-5.68,1.05-10.5,1.16-10.73,3.45-8.51,10.14-9.53,12.85-9.58,1.22-.02,2.04.14,2.13.15,3.42,1.53,5.3,3.36,5.99,5.57.77,2.5-.33,4.45-.46,4.66-5.68,5.46-4.97,12.44-3.93,16.45,4.82,4.37,6.77,10.54,5.78,18.33-.1.44-5.18,16.71-22.6,17.02M1532.22,214.63c-1.86.03-3.2.89-3.53,2.13-.43,1.65.97,3.47,3.12,4.03,6.49,2.97,12.16,4.38,17.14,4.3,14.89-.26,19.17-13.76,19.36-14.33.8-6.52-.89-11.79-5.08-15.4-.25-.2-.44-.51-.52-.82-1.06-3.72-2.73-13.08,4.35-19.88-.07,0,.21-.75-.08-1.67-.39-1.2-1.65-2.31-3.66-3.25,0,.03-.51-.03-1.14-.02-2.53.04-7.16,1.07-9.77,7.45-.03.04-2.15,5.47-.48,11.02.17.53.05,1.1-.28,1.55-.36.43-.92.67-1.45.64-.2-.01-1.06-.11-1.24-.19-.37-.08-3.4-.54-5.73-.91-1.55-.22-2.83-.43-3-.47-2.24-.6-4.31.4-4.72,1.98-.31,1.15.3,2.46,1.55,3.3.58.42.86,1.15.67,1.83-.19.69-.77,1.19-1.48,1.26-1.51.14-2.68.98-2.98,2.15-.3,1.13.31,2.42,1.55,3.28.58.41.86,1.14.67,1.83-.18.68-.78,1.2-1.49,1.26-1.5.14-2.66.99-2.97,2.15-.34,1.28.51,2.75,2.05,3.58.69.37,1.04,1.17.84,1.93-.19.76-.8,1.22-1.69,1.26h0Z"/>
  </g>
  <path class="st6" d="M149.71,150.58l24.72-10.13c-7.83-5.17-17.04-9.38-27.23-12.35l-11.45,14.68c5.33,2.01,10.07,4.66,13.97,7.79"/>
  <path class="st7" d="M111.46,206.04c-8.02,0-15.58-1.29-22.29-3.55-2.68-.91-5.23-1.96-7.61-3.16-4.4-2.23-8.24-4.94-11.35-8-1.94-1.92-3.59-3.98-4.93-6.15-2.43-3.97-3.77-8.33-3.77-12.89,0-10.81,7.52-20.42,19.21-26.6,2.38-1.26,4.93-2.37,7.61-3.32,6.92-2.45,14.78-3.84,23.14-3.84,5.64,0,11.06.64,16.12,1.8l11.2-14.36c-8.62-1.86-17.79-2.85-27.31-2.85-12.7,0-24.79,1.77-35.75,4.98-2.79.81-5.51,1.72-8.14,2.72-27.59,10.41-46.25,30.34-46.25,53.2,0,6.11,1.34,12.02,3.83,17.59,1.02,2.29,2.23,4.52,3.63,6.69,6.04,9.37,15.47,17.54,27.25,23.75,2.36,1.24,4.82,2.41,7.36,3.49,13.91,5.94,30.4,9.38,48.08,9.38s34.54-3.52,48.56-9.59l-28.45-32.15c-6.16,1.84-12.96,2.86-20.11,2.86"/>
  <path class="st6" d="M181.52,145.72l-26,10.65c3.76,4.74,5.89,10.16,5.89,15.92,0,11.62-8.69,21.87-21.92,27.94l27.9,31.55c20.83-11.16,34.19-28.4,34.19-47.75,0-14.52-7.52-27.85-20.07-38.31"/>
  <path class="st4" d="M1338.51,164.1c-5.41-7.81-14.09-11.61-26.53-11.61-11.57,0-22.04,3.41-29.02,9.39v-6.75c0-.42-.33-.75-.75-.75h-14.64c-.42,0-.74.33-.74.75v70.42c0,.42.32.74.74.74h14.99c.41,0,.74-.33.74-.74v-37.17c0-15.37,13.72-22.28,23.46-22.28,16.81,0,18.76,8.87,18.76,15.55v43.89c0,.42.33.74.74.74h16.16c.42,0,.75-.33.75-.74v-44.01c0-5.24-.36-11.34-4.67-17.44"/>
  <path class="st4" d="M811.32,154.84c-11.13,0-19.29,3.64-25.6,11.44-4.66-7.59-12.16-11.44-22.31-11.44-12.12,0-18.55,5.61-21.9,9.24v-6.59c0-.42-.32-.75-.75-.75h-15.14c-.41,0-.75.33-.75.75v70.41c0,.42.34.74.75.74h15.42c.42,0,.75-.33.75-.74v-41.16c0-17.76,16.29-18.28,18.14-18.28,12,0,13.01,9.68,13.01,18.76v40.67c0,.42.32.74.75.74h15.55c.42,0,.76-.33.76-.74v-39.37c0-18.61,13.68-20.06,17.87-20.06,8.99,0,13.56,5.23,13.56,15.54v43.89c0,.42.32.74.75.74h15.55c.42,0,.75-.33.75-.74v-43.06c0-7.22-.63-13.17-3.71-18.7-3.13-5.46-10.93-11.31-23.43-11.31"/>
  <path class="st4" d="M1112.41,150.6c-14.56,0-23.38,4.86-28.43,9.41v-6.76c0-.42-.35-.75-.78-.75h-14.5c-.42,0-.78.33-.78.75v98.03c0,.42.35.75.78.75h14.78c.43,0,.78-.33.78-.75v-34.1c4.33,3.28,14.84,9.12,28.28,9.12,24.07,0,42.93-16.63,42.93-37.85s-18.93-37.86-43.06-37.86M1113.02,211.23c-6.89,0-29.33-1.65-29.33-22.77s24.43-22.89,29.33-22.89c15.46,0,26.25,9.41,26.25,22.89s-10.79,22.77-26.25,22.77"/>
  <path class="st4" d="M661.33,152.49c-24.24,0-48.78,13-48.78,37.86s24.54,37.85,48.78,37.85,48.93-13,48.93-37.85-24.62-37.86-48.93-37.86M661.33,215.19c-13.7,0-30.72-6.51-30.72-24.85s17.03-24.97,30.72-24.97c11.02,0,30.72,5.26,30.72,24.97,0,18.34-17.03,24.85-30.72,24.85"/>
  <path class="st4" d="M285.62,137.14c-15,0-27.76,3.93-37.94,11.69-11.74,8.91-17.68,20.55-17.68,34.6s5.87,26.02,17.44,34.86c10.1,7.67,22.94,11.56,38.17,11.56,10.85,0,20.32-1.64,28.14-4.87,7.84-3.23,14.96-8.57,21.16-15.84.14-.18.21-.4.17-.62-.04-.22-.18-.41-.39-.52l-12.17-7.75c-.3-.17-.67-.1-.91.15-8.5,9.23-20.33,13.91-35.17,13.91-12.3,0-22.19-2.96-29.39-8.81-7.16-5.81-10.39-12.59-10.39-22.06s3.27-16.28,10.52-22.2c7.27-5.97,16.84-8.99,28.43-8.99,15.32,0,27.39,4.61,35.88,13.68.21.22.52.3.81.2l12.89-5.16c.21-.08.4-.26.45-.49.07-.23.03-.48-.11-.67-11.53-15.03-28.33-22.65-49.92-22.65"/>
  <path class="st4" d="M437.59,152.83h-14.19c-.42,0-.75.33-.75.75v46.26c0,10.38-8.92,15.43-27.28,15.43s-27.39-5.05-27.39-15.43v-46.26c0-.42-.35-.75-.76-.75h-14.19c-.42,0-.75.33-.75.75v49.12c0,7.94,3.98,14.48,11.81,19.48,7.74,4.93,18.26,7.43,31.27,7.43s23.41-2.5,31.15-7.43c7.84-4.99,11.82-11.54,11.82-19.48v-49.12c0-.42-.34-.75-.76-.75"/>
  <path class="st4" d="M529.15,187.55c-5.12-3.13-13.78-5.34-25.73-6.53-8.29-.79-16.56-1.54-24.79-2.25-5.62-.96-8.48-2.95-8.48-5.92,0-5.27,7.91-7.94,23.5-7.94,10.94,0,21.21,2.49,30.52,7.41.3.15.67.1.89-.14l8.76-9.28c.15-.16.22-.37.2-.59-.02-.22-.15-.41-.31-.54-10.26-7.19-23.81-10.84-40.29-10.84-12.39,0-22.16,2.1-29.06,6.23-7.03,4.22-10.6,10.01-10.6,17.24,0,6.02,2.26,10.67,6.71,13.81,4.33,3.07,11.15,5.08,20.22,5.96,2.26.24,8.35.58,18.61,1.07,6.37.32,11.13.91,14.13,1.76,5.2,1.5,7.74,3.95,7.74,7.49,0,3.2-2.06,5.72-6.31,7.71-4.37,2.04-10.68,3.08-18.72,3.08-14.37,0-26.64-3.51-36.48-10.45-.33-.23-.78-.16-1.03.16l-7.69,10.11c-.25.33-.19.8.14,1.05,11.28,8.62,26.51,13,45.29,13,13.32,0,23.65-2.2,30.72-6.53,7.18-4.41,10.82-10.75,10.82-18.84,0-7.22-2.95-12.68-8.76-16.22"/>
  <path class="st4" d="M946.57,139.87h-16.65c-.47,0-.86.33-.86.75v58.6c0,5.98-2.08,10.27-6.16,12.73-4.18,2.53-11.19,3.8-20.85,3.8-8.65,0-15.1-1.26-19.18-3.76-4.01-2.45-6.41-6.64-7.13-12.46-.04-.39-.42-.67-.87-.67h-16.93c-.24,0-.47.08-.64.23-.17.15-.25.34-.24.54.57,9.85,4.68,17.48,12.19,22.66,7.47,5.17,18.18,7.78,31.83,7.78,15,0,26.59-2.67,34.44-7.95,7.9-5.32,11.91-13.06,11.91-23v-58.51c0-.42-.4-.75-.88-.75"/>
  <path class="st4" d="M1039.59,154.97c-7.27-4.14-17.55-6.23-30.57-6.23-17.31,0-31.58,3.64-42.35,10.85-.19.12-.31.31-.33.53-.03.21.05.42.2.58l9.19,9.27c.26.26.67.32,1.01.15,9.77-4.91,20.56-7.4,32.05-7.4,16,0,24.83,2.95,24.88,8.32v7.71c-9.47-2.7-20.47-3.38-32.79-2.04-14.25,1.55-24.19,4.5-30.39,9.01-6.4,4.67-9.18,10.99-8.24,18.8.39,3.18,1.48,6,3.18,8.25,2.15,4.12,5.8,7.42,10.8,9.8,6.03,2.88,13.98,4.33,23.64,4.33,2.87,0,5.96-.13,9.17-.38,8.79-.7,17.07-2.36,24.63-4.92v4.34c0,.41.35.74.79.75l15.44.09c.3.05.42-.08.58-.22.15-.14.24-.33.24-.54v-53.19c0-.22.19-.51,0-.65,0-7.22-3.74-13.02-11.12-17.23M1033.66,206.3c-7.49,3.48-16.12,5.62-25.7,6.39-8.41.67-15.1.17-19.87-1.51-5.08-1.77-8.69-4.91-8.96-7.78-.02-.08-.14-.45-.17-.52-.25-1.71.23-3.3,1.45-4.73,3.14-3.7,10.87-6.32,22.38-7.57,2.73-.3,5.47-.45,8.15-.45,7.74,0,15.38,1.26,22.71,3.75v12.42Z"/>
  <path class="st4" d="M1241.45,154.97c-7.27-4.14-17.55-6.23-30.57-6.23-17.32,0-31.58,3.64-42.36,10.85-.19.12-.3.31-.33.53-.02.21.06.42.21.58l9.2,9.27c.25.26.67.32,1,.15,9.77-4.91,20.55-7.4,32.04-7.4,16.01,0,24.84,2.95,24.88,8.32v7.71c-9.46-2.7-20.47-3.38-32.78-2.04-14.25,1.55-24.19,4.5-30.39,9.01-6.4,4.67-9.17,10.99-8.24,18.8.39,3.18,1.47,6,3.18,8.25,2.16,4.12,5.8,7.42,10.8,9.8,6.03,2.88,13.97,4.33,23.64,4.33,2.88,0,5.95-.13,9.18-.38,8.79-.7,17.05-2.36,24.62-4.92v4.34c0,.41.35.74.81.75l15.43.09c.31.05.43-.08.59-.22.15-.14.24-.33.24-.54v-53.19c0-.22.17-.51-.01-.65,0-7.22-3.74-13.02-11.12-17.23M1235.52,206.3c-7.48,3.48-16.11,5.62-25.69,6.39-8.4.67-15.1.17-19.87-1.51-5.08-1.77-8.68-4.91-8.96-7.78-.01-.08-.14-.45-.17-.52-.24-1.71.23-3.3,1.45-4.73,3.13-3.7,10.87-6.32,22.38-7.57,2.74-.3,5.47-.45,8.15-.45,7.75,0,15.38,1.26,22.7,3.75v12.42Z"/>
  <path class="st4" d="M604.75,152.48h-25.1v-16.99c0-.42-.32-.75-.75-.75h-14.19c-.42,0-.75.33-.75.75v16.99h-17.07c-.42,0-.75.33-.75.74v12.85c0,.41.33.74.75.74h17.07v41.8s.03.04.04.07c.07,6.54.63,9.15,2.51,12.22,3,5.01,8.76,7.34,18.16,7.34,3.29,0,7.35-.29,12.43-.86.22-.02.39-.22.39-.44v-12.76c0-.13-.06-.25-.15-.34-.09-.09-.22-.13-.35-.1-3.73.5-6.68.73-9.28.73-6.28,0-8-1.76-8-8.16,0-.06-.05-.11-.07-.17v-39.32h25.1c.41,0,.74-.33.74-.74v-12.85c0-.41-.33-.74-.74-.74"/>
</svg>