<?xml version="1.0" encoding="UTF-8"?>
<svg id="_レイヤー_1" data-name="レイヤー_1" xmlns="http://www.w3.org/2000/svg" xmlns:xlink="http://www.w3.org/1999/xlink" version="1.1" viewBox="0 0 1600 250">
  <!-- Generator: Adobe Illustrator 30.0.0, SVG Export Plug-In . SVG Version: 2.1.1 Build 123)  -->
  <defs>
    <style>
      .st0, .st1, .st2, .st3 {
        fill: none;
      }

      .st4 {
        fill: #f8e7ce;
      }

      .st5 {
        fill: #c91e1d;
      }

      .st6 {
        fill: #00468c;
      }

      .st7 {
        fill: #9e9d9e;
      }

      .st8 {
        fill: #2595c7;
      }

      .st9 {
        fill: #fff;
      }

      .st1 {
        stroke-width: 2px;
      }

      .st1, .st2 {
        stroke-linecap: round;
        stroke-linejoin: round;
      }

      .st1, .st2, .st3 {
        stroke: #221714;
      }

      .st2, .st3 {
        stroke-width: 2.38px;
      }

      .st10 {
        fill: #221714;
      }

      .st11 {
        clip-path: url(#clippath);
      }

      .st12 {
        fill: #eec0b7;
      }
    </style>
    <clipPath id="clippath">
      <polygon class="st0" points="1351.31 27.11 1351.26 220.62 1557.37 219.25 1557.42 25.74 1351.31 27.11"/>
    </clipPath>
  </defs>
  <g class="st11">
    <path class="st10" d="M1544.92,166.96c-1.01-3.9-1.7-10.69,3.82-16,.13-.21,1.2-2.11.45-4.53-.67-2.15-2.5-3.93-5.83-5.42-.1-.01-.89-.17-2.08-.15-2.64.04-9.14,1.04-12.5,9.32-.1.23-1.97,4.91-1.13,10.44-.92-.15-2.25-.36-4.23-.66-1.34-.22-2.45-.38-2.61-.42-3.83-1.03-7.75.98-8.62,4.3-.39,1.58-.1,3.22.77,4.63-1.45.8-2.51,2.09-2.93,3.67-.42,1.57-.11,3.21.75,4.62-1.45.81-2.52,2.1-2.93,3.69-.28,1.05-.22,2.14.11,3.16-2.67-2.69-5.55-5.2-8.63-7.53,3.36-4.63,6.08-9.67,8.07-15.03l2.6.68c.14.04.29.05.46.05.64-.01,1.23-.4,1.49-1.01l6.23-15.06c.18-.45.17-.94-.04-1.37-.22-.42-.6-.73-1.05-.86l-2.1-.55c3.9-9.98,5.78-20.73,5.44-31.76-1.37-43.58-37.96-78.44-81.55-77.67l-1.14.02c-21.41.69-41.29,9.65-55.94,25.26-14.67,15.62-22.36,36.02-21.68,57.43.35,11.43,3.14,22.27,7.84,32.01-.4.16-.72.46-.89.87-.18.43-.16.93.04,1.36l7.16,14.64c.29.6.89.95,1.52.94.15,0,.32-.03.48-.08l.26-.09c2.53,5.49,5.84,10.57,9.81,15.14-.5.47-1,.93-1.5,1.4-15.37,14.68-23.5,33.82-22.86,53.9.21,6.63,1.39,13.18,3.5,19.47.2.58.69,1.01,1.3,1.11.39.07,39.24,6.09,81.75,7.45,3.05.1,6.11.12,9.15.07,31.43-.55,65.37-9.08,68.72-13.03.05-.06.09-.11.13-.16,8.19-3.81,15.08-14.22,17.23-27.08,1.64-9.95.11-19.36-3.64-26,7.74-4.73,10.32-13.01,10.39-13.31.96-7.57-.93-13.58-5.62-17.82"/>
    <path class="st1" d="M1544.92,166.96c-1.01-3.9-1.7-10.69,3.82-16,.13-.21,1.2-2.11.45-4.53-.67-2.15-2.5-3.93-5.83-5.42-.1-.01-.89-.17-2.08-.15-2.64.04-9.14,1.04-12.5,9.32-.1.23-1.97,4.91-1.13,10.44-.92-.15-2.25-.36-4.23-.66-1.34-.22-2.45-.38-2.61-.42-3.83-1.03-7.75.98-8.62,4.3-.39,1.58-.1,3.22.77,4.63-1.45.8-2.51,2.09-2.93,3.67-.42,1.57-.11,3.21.75,4.62-1.45.81-2.52,2.1-2.93,3.69-.28,1.05-.22,2.14.11,3.16-2.67-2.69-5.55-5.2-8.63-7.53,3.36-4.63,6.08-9.67,8.07-15.03l2.6.68c.14.04.29.05.46.05.64-.01,1.23-.4,1.49-1.01l6.23-15.06c.18-.45.17-.94-.04-1.37-.22-.42-.6-.73-1.05-.86l-2.1-.55c3.9-9.98,5.78-20.73,5.44-31.76-1.37-43.58-37.96-78.44-81.55-77.67l-1.14.02c-21.41.69-41.29,9.65-55.94,25.26-14.67,15.62-22.36,36.02-21.68,57.43.35,11.43,3.14,22.27,7.84,32.01-.4.16-.72.46-.89.87-.18.43-.16.93.04,1.36l7.16,14.64c.29.6.89.95,1.52.94.15,0,.32-.03.48-.08l.26-.09c2.53,5.49,5.84,10.57,9.81,15.14-.5.47-1,.93-1.5,1.4-15.37,14.68-23.5,33.82-22.86,53.9.21,6.63,1.39,13.18,3.5,19.47.2.58.69,1.01,1.3,1.11.39.07,39.24,6.09,81.75,7.45,3.05.1,6.11.12,9.15.07,31.43-.55,65.37-9.08,68.72-13.03.05-.06.09-.11.13-.16,8.19-3.81,15.08-14.22,17.23-27.08,1.64-9.95.11-19.36-3.64-26,7.74-4.73,10.32-13.01,10.39-13.31.96-7.57-.93-13.58-5.62-17.82Z"/>
    <path class="st8" d="M1448.62,262.66c36.07,1.17,73.82-9.18,76.55-12.39,6.19-7.27,2.43-12.57,2.2-19.18-1.27-40.54-38.94-72.27-84.18-70.84-45.19,1.42-80.82,35.43-79.54,75.98.22,6.61,1.39,12.98,3.42,19,0,0,38.65,6.06,81.55,7.43"/>
    <path class="st10" d="M1457.7,264.38h0c-3.05.05-6.1.03-9.15-.07-42.51-1.36-81.36-7.38-81.75-7.45-.61-.1-1.11-.52-1.3-1.11-2.11-6.29-3.3-12.84-3.5-19.47-.64-20.08,7.48-39.22,22.86-53.91,15.32-14.63,36.02-23.08,58.29-23.78l1.32-.02c45.35-.79,83.28,31.72,84.55,72.46.05,1.69.36,3.29.65,4.87.87,4.69,1.78,9.53-3.25,15.44-3.35,3.95-37.29,12.48-68.72,13.03M1368.32,253.75c6.33.94,41.83,6.02,80.34,7.26,2.99.09,6,.11,8.98.06,34.01-.59,64.12-9.7,66.28-11.89,3.99-4.7,3.33-8.22,2.51-12.67-.33-1.74-.65-3.5-.72-5.37-1.22-38.96-37.63-70.03-81.18-69.27l-1.28.04c-21.46.67-41.38,8.77-56.12,22.85-14.68,14.03-22.43,32.28-21.83,51.42.19,5.97,1.21,11.88,3.03,17.57"/>
    <path class="st9" d="M1427.03,223.78c4.81-.14,7.63-2.81,7.52-5.62-.07-2.72-3.02-4.18-6.85-4.05-5.68.17-7.34,3.11-7.88,4-.84,1.52-1.45,2.53-3.76,2.6-2.08.06-4.7-.8-4.77-3.23-.12-3.74,5.91-9.54,16.28-9.86,9.06-.28,15.54,3.75,15.74,10.09.15,5.05-4.05,7.51-5.65,8.44,1.85.75,6.71,2.66,6.9,8.84.24,7.37-7.12,12.6-16.24,12.88-9.96.3-17.63-5.28-17.76-9.1-.05-1.97,2.34-3.54,4.42-3.59,2.16-.06,3.33,1.03,4.84,2.71,1.23,1.34,2.4,2.35,5.07,3.02.77.21,1.9.42,3.17.39,2.71-.09,7.88-1.69,7.74-5.99-.12-4.11-4.76-5.39-7.8-5.29l-6.02.18c-2.79.09-4.03-1.75-4.1-3.08-.05-1.84,1.93-3.13,3.25-3.18l5.9-.17Z"/>
    <path class="st9" d="M1462.57,213.21c5.43-.18,7.3,3,7.4,6.4.09,2.28-.91,6.91-6.65,7.09-6.05.19-7.36-3.77-7.44-6.61-.06-1.46.16-6.67,6.69-6.88M1462.71,246.81c6.41-.65,9.92-1.59,13.12-5.72,3.28-4.19,3.97-10.25,3.79-15.85-.09-3.26-.68-7.49-2.65-11.54-1.41-2.88-5.78-7.44-14.33-7.18-8.01.25-15.62,4.99-15.34,13.79.22,6.93,5.27,12.75,15.09,12.44,3.22-.1,5.07-.79,6.07-1.21,1.31-.59,1.91-1.2,2.47-1.82.03,2.77.06,10.39-7.8,10.63-2.45.09-4.49-.3-7.22-3.04-1.95-2.02-2.89-2.03-3.91-2-1.69.06-4.25.97-4.18,3.2.04,1.04.44,2.21,1.83,3.66,3.78,4.03,8.77,4.42,13.07,4.64"/>
    <path class="st9" d="M1518.79,111.21c1.34,43.36-32.69,79.62-76.06,80.97-43.35,1.35-79.63-32.69-80.97-76.05-1.39-43.35,32.66-79.61,76.03-80.98,43.37-1.35,79.62,32.69,81,76.05"/>
    <path class="st10" d="M1441.66,193.85c-43.61.76-80.18-34.09-81.55-77.66-.68-21.41,7.01-41.8,21.68-57.43,14.66-15.61,34.53-24.58,55.94-25.26l1.14-.02c43.59-.76,80.18,34.09,81.55,77.67.67,21.41-7.04,41.82-21.69,57.42-14.67,15.62-34.54,24.59-55.95,25.26l-1.12.02ZM1438.93,36.77l-1.09.03c-20.54.65-39.58,9.26-53.64,24.22-14.06,14.98-21.44,34.53-20.8,55.06,1.32,41.79,36.38,75.2,78.19,74.47l1.08-.03c20.53-.65,39.58-9.24,53.64-24.22,14.05-14.98,21.45-34.53,20.8-55.05-1.32-41.81-36.39-75.22-78.2-74.49"/>
    <path class="st10" d="M1511.21,137.91c1.14,35.87-29.35,65.95-68.07,67.16-38.72,1.22-71.03-26.88-72.17-62.78-1.13-35.88,29.35-65.95,68.09-67.16,38.71-1.22,71.02,26.88,72.14,62.78"/>
    <path class="st4" d="M1506.53,131.43c1.15,36.25-27.33,66.56-63.57,67.7-36.24,1.13-66.54-27.32-67.71-63.59-1.11-36.26,27.33-66.55,63.59-67.68,36.25-1.15,66.57,27.32,67.7,63.56"/>
    <path class="st10" d="M1442.05,200.8c-36.57.65-67.29-28.6-68.45-65.2-1.15-37.1,28.08-68.23,65.17-69.38l.96-.03c36.59-.64,67.3,28.61,68.45,65.19.57,17.98-5.9,35.08-18.21,48.2-12.31,13.11-28.99,20.64-46.98,21.2l-.94.02ZM1439.79,69.49l-.9.03c-35.29,1.1-63.07,30.7-61.99,65.98,1.11,34.8,30.32,62.6,65.1,62l.9-.02c17.09-.54,32.96-7.7,44.67-20.17,11.7-12.46,17.85-28.75,17.32-45.83-1.09-34.78-30.29-62.6-65.1-61.99"/>
    <polygon class="st9" points="1489.64 59.57 1386.85 62.8 1373.23 97.03 1507.59 92.81 1489.64 59.57"/>
    <path class="st7" d="M1382.63,96.82c-3.63.12-4.12,1.85-1.07,3.83,0,0,28.76,18.82,58.86,17.87,30.1-.95,57.61-21.51,57.61-21.51,2.91-2.18,2.34-3.88-1.29-3.76l-114.11,3.57Z"/>
    <path class="st10" d="M1439.48,120.19c-29.92.52-57.65-17.39-58.81-18.16-2.73-1.79-2.96-3.41-2.68-4.46.3-1.04,1.34-2.3,4.58-2.41l114.12-3.56h0c3.31-.06,4.37,1.12,4.71,2.12.36,1.03.22,2.66-2.37,4.6-1.15.85-28.28,20.89-58.58,21.84l-.98.03ZM1381.59,98.6c.19.17.47.4.89.67.27.18,28.07,18.12,56.95,17.63l.94-.04c29.22-.92,56.41-20.98,56.69-21.19.39-.29.66-.54.84-.72-.24-.03-.54-.06-.95-.05l-114.27,3.57c-.48.02-.85.08-1.09.13"/>
    <polygon class="st7" points="1502.62 158.07 1510.44 160.12 1516.67 145.06 1507.43 142.63 1502.62 158.07"/>
    <path class="st10" d="M1510.48,161.77c-.16,0-.31,0-.46-.05l-7.83-2.05c-.43-.11-.8-.4-1.02-.8-.22-.39-.26-.86-.13-1.29l4.81-15.46c.26-.84,1.13-1.32,1.99-1.09l9.24,2.43c.46.12.83.43,1.05.86.21.43.23.93.04,1.37l-6.22,15.06c-.26.62-.85,1-1.49,1.01M1504.71,156.91l4.74,1.24,4.96-11.98-5.88-1.55-3.82,12.29Z"/>
    <polygon class="st7" points="1383.44 161.81 1375.77 164.36 1368.6 149.7 1377.66 146.69 1383.44 161.81"/>
    <path class="st10" d="M1375.8,166.01c-.63.02-1.23-.33-1.52-.94l-7.17-14.64c-.2-.43-.22-.93-.04-1.36.19-.45.55-.79,1.02-.93l9.06-3.02c.82-.29,1.74.15,2.06.98l5.78,15.12c.16.43.14.89-.05,1.3-.19.4-.55.71-.97.85l-7.68,2.55c-.16.05-.33.07-.48.08M1370.91,150.68l5.71,11.64,4.66-1.54-4.59-12.04-5.77,1.93Z"/>
    <polygon class="st10" points="1420.67 133.01 1389.1 134.02 1388.77 123.74 1420.33 122.75 1420.67 133.01"/>
    <path class="st10" d="M1389.13,135.67c-.91.02-1.66-.7-1.69-1.6l-.33-10.27c0-.44.14-.86.45-1.19.3-.32.71-.51,1.16-.51l31.56-1c.85.17,1.68.69,1.69,1.6l.34,10.27c.03.44-.15.86-.44,1.18-.3.33-.72.52-1.16.53l-31.58.98h0ZM1390.48,125.34l.23,6.97,28.25-.89-.22-6.96-28.27.89Z"/>
    <polygon class="st10" points="1490.41 130.83 1458.85 131.82 1458.51 121.56 1490.09 120.55 1490.41 130.83"/>
    <path class="st10" d="M1458.88,133.48c-.9.02-1.65-.7-1.68-1.6l-.33-10.28c-.02-.43.14-.86.46-1.18.3-.32.7-.51,1.14-.52l31.58-1.01c.41.09.86.15,1.18.45.31.3.5.72.52,1.16l.33,10.28c.02.92-.69,1.68-1.61,1.71l-31.57.99h-.02ZM1460.23,123.16l.22,6.97,28.27-.89-.21-6.98-28.28.9Z"/>
    <path class="st10" d="M1411.67,154.62c.08,2.57-1.94,4.71-4.49,4.79-2.57.08-4.71-1.92-4.79-4.5-.1-2.57,1.93-4.71,4.49-4.79,2.57-.08,4.7,1.94,4.8,4.5"/>
    <path class="st10" d="M1479.95,152.48c.09,2.56-1.93,4.72-4.51,4.8-2.56.08-4.71-1.94-4.79-4.51-.07-2.56,1.94-4.72,4.5-4.78,2.56-.08,4.72,1.92,4.79,4.49"/>
    <path class="st12" d="M1471.07,181.79c.1,3.43-2.6,6.33-6.04,6.44l-44.77,1.4c-3.44.11-6.33-2.61-6.44-6.05l-.17-5.13c-.1-3.44,2.63-6.34,6.05-6.44l44.79-1.42c3.42-.1,6.33,2.63,6.44,6.07l.15,5.13Z"/>
    <path class="st10" d="M1420.19,191.28c-4.29.08-7.9-3.36-8.03-7.66l-.17-5.12c-.06-2.1.7-4.11,2.15-5.66,1.45-1.54,3.4-2.43,5.5-2.49l44.79-1.41c4.41-.08,8,3.35,8.13,7.66l.17,5.13c.13,4.36-3.3,8.02-7.65,8.14l-44.77,1.41s-.11,0-.12,0M1464.6,172.25l-44.86,1.41c-1.22.05-2.35.56-3.19,1.45-.85.9-1.29,2.07-1.26,3.29l.18,5.13c.08,2.5,2.16,4.5,4.66,4.46l.03,1.65.04-1.65,44.79-1.41c2.52-.08,4.51-2.21,4.44-4.74l-.16-5.13c-.08-2.51-2.17-4.5-4.67-4.46"/>
    <line class="st12" x1="1421.77" y1="180.02" x2="1460.69" y2="178.8"/>
    <path class="st10" d="M1421.8,181.66c-.9.02-1.66-.69-1.67-1.6-.04-.91.68-1.68,1.59-1.7l38.91-1.21c.77,0,1.69.69,1.71,1.61.03.9-.69,1.67-1.6,1.69l-38.91,1.21s-.02,0-.03,0"/>
    <path class="st10" d="M1427.71,71.82c3.23-.14,5.12-2.08,5.22-4.23.04-2.11-1.66-3.14-4.08-3.09-3.59.14-4.9,2.31-5.33,3.01-.7,1.16-1.21,1.89-2.76,1.95-1.39.04-2.89-.59-2.6-2.46.6-2.9,4.86-7.13,11.09-7.42,5.47-.1,9.14,2.86,9.3,7.71.04,3.87-2.73,5.66-3.85,6.36,1.22.57,4.47,1.97,4.68,6.69.04,5.66-5.34,9.43-12.74,9.76-8.08.15-13.44-3.93-12.83-6.89.42-1.53,2.5-2.67,4.07-2.74,1.63-.04,2.3.76,3.22,2.06.78,1.04,1.51,1.77,3.51,2.28.58.17,1.39.33,2.37.3,2.08-.1,5.94-1.23,6.08-4.54.03-3.14-3.07-4.05-5.21-4.02-1.44.05-2.8.08-4.26.13-1.97.03-2.6-1.32-2.45-2.34.22-1.41,1.68-2.36,2.57-2.4,1.34-.04,2.62-.08,3.99-.13"/>
    <path class="st10" d="M1450.73,63.96c3.44-.06,4.99,2.24,5.62,4.84.4,1.73.47,5.1-3.59,5.3-4.31.08-5.44-2.83-5.72-4.97-.16-1.15-.45-4.96,3.69-5.17M1454.59,89.22c5.44-.51,8.54-1.2,10.46-4.32,1.85-3.23.65-7.63-.86-11.87-.9-2.48-2.25-5.56-4.27-8.66-1.47-2.19-4.64-5.53-9.83-5.46-4.81.22-9.06,3.59-8.67,10.34.43,5.3,3.98,9.54,11.37,9.41,2.41-.08,3.67-.6,4.37-.92.89-.45,1.24-.89,1.54-1.35.52,2.11,1.88,7.65-4.47,7.99-1.99.05-3.57-.21-5.89-2.29-1.64-1.53-2.29-1.54-3.02-1.5-1.26.05-3.04.7-2.98,2.41.07.79.39,1.64,1.49,2.76,3.09,3.06,7.02,3.31,10.76,3.46"/>
    <path class="st10" d="M1437.47,165.75c-.36.01-.73-.11-1.04-.35l-4.53-3.52c-.72-.56-.85-1.59-.29-2.32.56-.72,1.59-.84,2.31-.29l4.54,3.52c.72.57.84,1.59.29,2.33-.32.41-.8.63-1.28.63"/>
    <path class="st10" d="M1446.29,165.46c-.46,0-.94-.18-1.27-.56-.6-.68-.53-1.73.15-2.33l4.29-3.8c.67-.6,1.72-.55,2.33.15.61.68.54,1.72-.15,2.32l-4.29,3.8c-.31.27-.69.41-1.06.41"/>
    <path class="st8" d="M1503.4,217.41c-2.76,16.73,3.66,31.73,14.35,33.51,10.69,1.77,21.6-10.36,24.4-27.08,2.77-16.74-3.66-31.75-14.36-33.52-10.69-1.76-21.61,10.36-24.4,27.09"/>
    <path class="st10" d="M1520.09,252.74h0c-.87.01-1.75-.04-2.62-.19-11.56-1.92-18.61-17.81-15.7-35.41,2.9-17.44,14.6-30.4,26.29-28.45,11.59,1.93,18.63,17.81,15.72,35.42-2.7,16.14-12.87,28.45-23.7,28.63M1525.52,191.8c-9.26.16-18.06,11.28-20.48,25.87-2.61,15.81,3.21,29.99,12.98,31.62,9.89,1.59,19.89-10.08,22.51-25.72,2.61-15.81-3.21-29.99-13-31.62-.66-.11-1.35-.16-2.01-.14"/>
    <path class="st4" d="M1548.91,184.58c1.04-8.32-1.7-13.49-5.46-16.7-1.03-3.68-2.37-11.86,3.88-17.76,0,0,2.56-4.31-4.3-7.49,0,0-8.67-1.73-12.73,8.18,0,0-2.35,5.76-.51,11.81-.41-.03-.63-.04-.63-.04-.39-.15-8.36-1.34-8.77-1.44-2.99-.78-5.95.62-6.6,3.12-.48,1.86.44,3.81,2.17,5-2.09.2-3.85,1.44-4.33,3.3-.5,1.87.45,3.81,2.17,5-2.1.2-3.85,1.45-4.34,3.31-.54,2.07.69,4.22,2.8,5.37-2.4-.07-4.52,1.23-5.07,3.3-.66,2.51,1.24,5.16,4.21,5.95,30.06,13.91,37.5-10.89,37.5-10.89"/>
    <path class="st8" d="M1503.82,217.4c-2.76,16.73,3.66,31.73,14.35,33.51,10.69,1.77,21.61-10.36,24.39-27.08,2.79-16.74-3.66-31.75-14.35-33.52-10.69-1.76-21.61,10.36-24.4,27.09"/>
    <path class="st3" d="M1503.82,217.4c-2.76,16.73,3.66,31.73,14.35,33.51,10.69,1.77,21.61-10.36,24.39-27.08,2.79-16.74-3.66-31.75-14.35-33.52-10.69-1.76-21.61,10.36-24.4,27.09Z"/>
    <path class="st4" d="M1549.34,184.57c1.04-8.32-1.7-13.49-5.45-16.7-1.03-3.68-2.38-11.86,3.88-17.76,0,0,2.56-4.32-4.3-7.49,0,0-8.67-1.73-12.73,8.18,0,0-2.35,5.76-.51,11.81-.41-.03-.63-.04-.63-.04-.39-.15-8.36-1.34-8.77-1.44-2.99-.78-5.95.62-6.6,3.12-.48,1.86.44,3.81,2.17,5-2.09.2-3.85,1.44-4.33,3.3-.5,1.87.45,3.81,2.17,5-2.1.2-3.86,1.45-4.35,3.31-.54,2.07.7,4.23,2.81,5.37-2.41-.07-4.53,1.23-5.08,3.3-.65,2.51,1.25,5.16,4.23,5.95,30.05,13.91,37.49-10.89,37.49-10.89"/>
    <path class="st2" d="M1549.34,184.57c1.04-8.32-1.7-13.49-5.45-16.7-1.03-3.68-2.38-11.86,3.88-17.76,0,0,2.56-4.32-4.3-7.49,0,0-8.67-1.73-12.73,8.18,0,0-2.35,5.76-.51,11.81-.41-.03-.63-.04-.63-.04-.39-.15-8.36-1.34-8.77-1.44-2.99-.78-5.95.62-6.6,3.12-.48,1.86.44,3.81,2.17,5-2.09.2-3.85,1.44-4.33,3.3-.5,1.87.45,3.81,2.17,5-2.1.2-3.86,1.45-4.35,3.31-.54,2.07.7,4.23,2.81,5.37-2.41-.07-4.53,1.23-5.08,3.3-.65,2.51,1.25,5.16,4.23,5.95,30.05,13.91,37.49-10.89,37.49-10.89Z"/>
    <path class="st10" d="M1528.56,201.34h0c-5.34.09-11.35-1.37-17.83-4.38-3.58-.92-6-4.48-5.13-7.86.45-1.67,1.63-3.02,3.22-3.8-1-1.47-1.38-3.22-.95-4.87.41-1.59,1.47-2.88,2.93-3.69-.87-1.4-1.18-3.05-.76-4.62.41-1.58,1.48-2.87,2.93-3.67-.87-1.41-1.16-3.05-.77-4.63.87-3.31,4.79-5.33,8.62-4.3.16.04,1.27.2,2.62.42,1.98.3,3.31.51,4.23.66-.84-5.53,1.02-10.21,1.13-10.44,3.36-8.27,9.86-9.27,12.5-9.32,1.19-.01,1.98.14,2.08.15,3.32,1.48,5.16,3.27,5.83,5.42.75,2.43-.32,4.33-.45,4.54-5.53,5.31-4.83,12.11-3.82,16,4.69,4.25,6.58,10.25,5.62,17.82-.1.42-5.04,16.26-21.98,16.55M1512.23,187.87c-1.81.03-3.11.86-3.44,2.07-.42,1.61.94,3.38,3.04,3.92,6.31,2.89,11.83,4.26,16.67,4.18,14.48-.25,18.64-13.39,18.83-13.94.78-6.34-.86-11.47-4.94-14.98-.25-.2-.42-.5-.51-.8-1.03-3.62-2.65-12.72,4.23-19.34-.07,0,.21-.73-.08-1.63-.38-1.16-1.61-2.25-3.56-3.16,0,.03-.49-.03-1.11-.02-2.46.04-6.96,1.04-9.5,7.25-.03.04-2.09,5.32-.47,10.72.17.51.05,1.07-.28,1.51-.35.42-.9.65-1.41.62-.19-.01-1.03-.1-1.21-.19-.36-.07-3.31-.53-5.57-.88-1.51-.22-2.75-.42-2.92-.46-2.18-.58-4.19.39-4.59,1.93-.3,1.11.29,2.39,1.5,3.21.57.4.83,1.11.65,1.78-.18.68-.75,1.15-1.44,1.23-1.47.14-2.6.96-2.89,2.09-.29,1.1.3,2.35,1.51,3.19.57.4.84,1.11.66,1.78-.18.66-.76,1.17-1.45,1.23-1.46.14-2.59.96-2.89,2.09-.33,1.24.5,2.67,1.99,3.49.67.36,1.01,1.14.82,1.88-.19.74-.78,1.18-1.64,1.23h0Z"/>
  </g>
  <path class="st5" d="M167.46,125.56l24.04-9.85c-7.62-5.03-16.57-9.12-26.49-12.01l-11.14,14.28c5.19,1.95,9.79,4.53,13.59,7.58"/>
  <path class="st6" d="M130.26,179.51c-7.8,0-15.16-1.26-21.69-3.46-2.61-.88-5.09-1.91-7.41-3.07-4.28-2.17-8.02-4.8-11.04-7.78-1.88-1.87-3.49-3.87-4.79-5.98-2.37-3.87-3.67-8.1-3.67-12.54,0-10.51,7.32-19.86,18.69-25.87,2.31-1.22,4.79-2.3,7.4-3.23,6.73-2.38,14.38-3.73,22.51-3.73,5.48,0,10.75.62,15.68,1.75l10.89-13.97c-8.38-1.8-17.31-2.77-26.57-2.77-12.35,0-24.11,1.73-34.78,4.85-2.71.79-5.36,1.67-7.92,2.64-26.83,10.13-44.99,29.51-44.99,51.75,0,5.95,1.31,11.69,3.72,17.1.99,2.23,2.17,4.4,3.53,6.51,5.87,9.12,15.05,17.06,26.51,23.1,2.29,1.21,4.69,2.35,7.16,3.4,13.53,5.78,29.57,9.13,46.77,9.13s33.6-3.43,47.24-9.32l-27.67-31.27c-5.99,1.79-12.61,2.78-19.57,2.78"/>
  <path class="st5" d="M198.41,120.83l-25.29,10.36c3.66,4.61,5.73,9.89,5.73,15.48,0,11.31-8.45,21.27-21.32,27.17l27.14,30.69c20.26-10.85,33.25-27.63,33.25-46.44,0-14.12-7.31-27.09-19.52-37.26"/>
  <path class="st9" d="M1323.81,138.72c-5.26-7.6-13.7-11.3-25.8-11.3-11.26,0-21.44,3.31-28.22,9.14v-6.56c0-.4-.32-.73-.73-.73h-14.24c-.4,0-.72.32-.72.73v68.49c0,.4.32.72.72.72h14.58c.4,0,.72-.32.72-.72v-36.15c0-14.95,13.34-21.67,22.82-21.67,16.36,0,18.25,8.63,18.25,15.13v42.69c0,.4.32.72.72.72h15.72c.4,0,.73-.32.73-.72v-42.81c0-5.09-.35-11.03-4.54-16.97"/>
  <path class="st9" d="M811.01,129.71c-10.82,0-18.77,3.54-24.9,11.13-4.53-7.38-11.83-11.13-21.7-11.13-11.79,0-18.05,5.46-21.3,8.99v-6.41c0-.41-.32-.73-.73-.73h-14.73c-.4,0-.73.32-.73.73v68.49c0,.41.33.72.73.72h15c.41,0,.73-.32.73-.72v-40.03c0-17.28,15.84-17.78,17.65-17.78,11.67,0,12.65,9.42,12.65,18.24v39.56c0,.41.32.72.73.72h15.12c.41,0,.74-.32.74-.72v-38.29c0-18.11,13.31-19.51,17.38-19.51,8.75,0,13.19,5.09,13.19,15.12v42.69c0,.41.32.72.73.72h15.12c.41,0,.73-.32.73-.72v-41.88c0-7.03-.61-12.81-3.6-18.18-3.04-5.31-10.63-11.01-22.79-11.01"/>
  <path class="st9" d="M1103.88,125.59c-14.16,0-22.74,4.72-27.65,9.16v-6.57c0-.4-.34-.73-.76-.73h-14.1c-.41,0-.75.32-.75.73v95.36c0,.41.34.73.75.73h14.38c.42,0,.76-.32.76-.73v-33.17c4.22,3.19,14.44,8.87,27.51,8.87,23.41,0,41.76-16.17,41.76-36.82s-18.41-36.83-41.89-36.83M1104.47,184.56c-6.7,0-28.53-1.6-28.53-22.15s23.77-22.27,28.53-22.27c15.03,0,25.53,9.15,25.53,22.27s-10.5,22.15-25.53,22.15"/>
  <path class="st9" d="M665.11,127.42c-23.57,0-47.45,12.65-47.45,36.82s23.87,36.82,47.45,36.82,47.59-12.64,47.59-36.82-23.94-36.82-47.59-36.82M665.11,188.41c-13.32,0-29.89-6.33-29.89-24.17s16.56-24.29,29.89-24.29c10.72,0,29.88,5.12,29.88,24.29,0,17.84-16.56,24.17-29.88,24.17"/>
  <path class="st9" d="M299.66,112.49c-14.59,0-27,3.82-36.9,11.37-11.42,8.66-17.2,19.99-17.2,33.66s5.71,25.31,16.97,33.91c9.82,7.46,22.31,11.24,37.13,11.24,10.55,0,19.77-1.59,27.37-4.74,7.62-3.14,14.55-8.33,20.58-15.41.14-.17.21-.39.17-.6-.04-.22-.18-.4-.38-.5l-11.84-7.54c-.3-.17-.66-.1-.89.14-8.26,8.98-19.77,13.53-34.21,13.53-11.97,0-21.58-2.88-28.58-8.57-6.96-5.65-10.11-12.24-10.11-21.46s3.18-15.83,10.23-21.6c7.08-5.8,16.38-8.75,27.66-8.75,14.9,0,26.65,4.48,34.9,13.31.21.22.5.29.78.19l12.54-5.02c.21-.08.39-.25.44-.47.07-.23.03-.46-.11-.65-11.22-14.62-27.56-22.03-48.56-22.03"/>
  <path class="st9" d="M447.48,127.76h-13.8c-.4,0-.73.32-.73.73v45c0,10.1-8.68,15.01-26.53,15.01s-26.64-4.91-26.64-15.01v-45c0-.4-.34-.73-.74-.73h-13.8c-.4,0-.73.32-.73.73v47.77c0,7.72,3.87,14.09,11.49,18.95,7.53,4.8,17.76,7.23,30.42,7.23s22.77-2.43,30.3-7.23c7.62-4.85,11.5-11.23,11.5-18.95v-47.77c0-.4-.33-.73-.74-.73"/>
  <path class="st9" d="M536.55,161.53c-4.98-3.05-13.41-5.19-25.03-6.35-8.06-.77-16.11-1.5-24.11-2.19-5.47-.93-8.25-2.87-8.25-5.76,0-5.12,7.7-7.73,22.85-7.73,10.65,0,20.64,2.42,29.69,7.21.29.15.65.09.86-.14l8.52-9.03c.14-.15.22-.36.2-.57-.02-.21-.14-.4-.3-.53-9.98-6.99-23.16-10.55-39.19-10.55-12.05,0-21.55,2.04-28.27,6.06-6.83,4.1-10.31,9.74-10.31,16.77,0,5.85,2.2,10.37,6.53,13.43,4.22,2.98,10.84,4.94,19.66,5.8,2.2.23,8.12.57,18.11,1.04,6.2.31,10.83.88,13.75,1.71,5.06,1.46,7.53,3.84,7.53,7.28,0,3.11-2.01,5.57-6.13,7.5-4.25,1.99-10.39,2.99-18.21,2.99-13.98,0-25.91-3.42-35.48-10.17-.32-.22-.76-.16-1,.15l-7.48,9.83c-.24.32-.19.78.13,1.03,10.97,8.39,25.79,12.64,44.05,12.64,12.96,0,23.01-2.14,29.89-6.35,6.99-4.29,10.53-10.45,10.53-18.32,0-7.03-2.87-12.33-8.52-15.78"/>
  <path class="st9" d="M942.57,115.15h-16.19c-.46,0-.84.32-.84.73v57c0,5.82-2.02,9.99-5.99,12.38-4.06,2.46-10.89,3.7-20.28,3.7-8.42,0-14.69-1.23-18.66-3.65-3.9-2.38-6.23-6.46-6.93-12.12-.04-.37-.41-.65-.85-.65h-16.46c-.23,0-.46.08-.62.22-.16.14-.24.33-.23.53.56,9.58,4.55,17.01,11.86,22.05,7.26,5.03,17.69,7.57,30.96,7.57,14.59,0,25.87-2.6,33.5-7.73,7.69-5.18,11.59-12.7,11.59-22.37v-56.91c0-.4-.39-.73-.85-.73"/>
  <path class="st9" d="M1033.04,129.83c-7.08-4.03-17.07-6.06-29.73-6.06-16.84,0-30.71,3.54-41.2,10.55-.19.12-.3.3-.32.51-.03.21.04.41.2.56l8.94,9.02c.25.25.66.31.98.15,9.5-4.78,20-7.2,31.17-7.2,15.56,0,24.15,2.87,24.2,8.09v7.5c-9.21-2.63-19.92-3.29-31.89-1.99-13.86,1.51-23.53,4.38-29.56,8.77-6.22,4.54-8.93,10.69-8.01,18.29.38,3.09,1.44,5.83,3.09,8.02,2.09,4,5.64,7.22,10.5,9.53,5.86,2.8,13.59,4.22,22.99,4.22,2.8,0,5.8-.12,8.92-.37,8.55-.68,16.61-2.3,23.96-4.79v4.22c0,.4.34.72.77.73l15.01.08c.3.05.41-.08.57-.21.15-.13.24-.32.24-.52v-51.73c0-.21.18-.5,0-.63,0-7.02-3.63-12.66-10.82-16.76M1027.28,179.77c-7.28,3.39-15.68,5.47-25,6.22-8.18.66-14.69.16-19.33-1.47-4.94-1.73-8.45-4.77-8.71-7.57-.02-.08-.14-.44-.16-.51-.24-1.66.23-3.21,1.41-4.6,3.06-3.6,10.57-6.15,21.77-7.37,2.65-.29,5.32-.44,7.93-.44,7.53,0,14.96,1.23,22.09,3.65v12.08Z"/>
  <path class="st9" d="M1229.4,129.83c-7.07-4.03-17.08-6.06-29.73-6.06-16.85,0-30.71,3.54-41.21,10.55-.18.12-.3.3-.32.51-.02.21.06.41.21.56l8.95,9.02c.24.25.65.31.97.15,9.5-4.78,19.99-7.2,31.16-7.2,15.57,0,24.16,2.87,24.2,8.09v7.5c-9.2-2.63-19.92-3.29-31.88-1.99-13.86,1.51-23.53,4.38-29.56,8.77-6.22,4.54-8.92,10.69-8.01,18.29.38,3.09,1.43,5.83,3.09,8.02,2.1,4,5.64,7.22,10.5,9.53,5.86,2.8,13.59,4.22,22.99,4.22,2.8,0,5.79-.12,8.93-.37,8.55-.68,16.59-2.3,23.94-4.79v4.22c0,.4.34.72.78.73l15.01.08c.3.05.42-.08.57-.21.14-.13.24-.32.24-.52v-51.73c0-.21.17-.5-.01-.63,0-7.02-3.64-12.66-10.82-16.76M1223.63,179.77c-7.27,3.39-15.67,5.47-24.99,6.22-8.17.66-14.68.16-19.33-1.47-4.94-1.73-8.44-4.77-8.71-7.57-.01-.08-.14-.44-.16-.51-.23-1.66.22-3.21,1.41-4.6,3.05-3.6,10.57-6.15,21.77-7.37,2.66-.29,5.32-.44,7.93-.44,7.53,0,14.96,1.23,22.08,3.65v12.08Z"/>
  <path class="st9" d="M610.08,127.42h-24.41v-16.53c0-.4-.31-.73-.73-.73h-13.8c-.4,0-.73.32-.73.73v16.53h-16.61c-.4,0-.73.32-.73.72v12.5c0,.4.32.72.73.72h16.61v40.66s.03.04.04.06c.07,6.37.61,8.9,2.45,11.89,2.91,4.87,8.52,7.14,17.67,7.14,3.2,0,7.15-.28,12.09-.84.22-.02.38-.21.38-.43v-12.41c0-.12-.06-.25-.14-.33-.09-.08-.22-.12-.34-.1-3.63.49-6.5.72-9.03.72-6.11,0-7.78-1.71-7.78-7.94,0-.06-.04-.11-.07-.16v-38.25h24.41c.4,0,.72-.32.72-.72v-12.5c0-.4-.32-.72-.72-.72"/>
</svg>