<?xml version="1.0" encoding="UTF-8"?>
<svg xmlns="http://www.w3.org/2000/svg" viewBox="200 130 1250 1180"><defs>
    <style>
      .st0, .st1, .st2, .st3 {
        fill: none;
      }

      .st4 {
        fill: #221815;
      }

      .st5 {
        fill: #bd2121;
      }

      .st6 {
        fill: #060001;
      }

      .st7 {
        fill: #e9bbb3;
      }

      .st8 {
        fill: #004383;
      }

      .st1 {
        stroke-width: 13.11px;
      }

      .st1, .st2 {
        stroke-linecap: round;
        stroke-linejoin: round;
      }

      .st1, .st2, .st3 {
        stroke: #201512;
      }

      .st2, .st3 {
        stroke-width: 15.59px;
      }

      .st9 {
        fill: #9c9c9d;
      }

      .st10 {
        fill: #fff;
      }

      .st11 {
        fill: #201512;
      }

      .st12 {
        clip-path: url(#clippath);
      }

      .st13 {
        fill: #278bba;
      }

      .st14 {
        fill: #f5e4ca;
      }
    </style>
    <clipPath id="clippath">
      <polygon class="st0" points="222.11 158.01 221.8 1288.73 1426.16 1280.72 1426.45 150 222.11 158.01"/>
    </clipPath>
  </defs><g class="st12">
    <path class="st6" d="M1353.42,975.18c-5.9-22.78-9.96-62.48,22.35-93.51.74-1.21,7-12.3,2.61-26.5-3.91-12.55-14.61-22.98-34.04-31.65-.56-.08-5.17-.96-12.13-.88-15.4.25-53.4,6.08-73.04,54.44-.6,1.33-11.5,28.69-6.58,60.98-5.36-.9-13.16-2.12-24.73-3.88-7.85-1.27-14.34-2.25-15.28-2.45-22.37-6.01-45.26,5.75-50.35,25.11-2.3,9.25-.61,18.84,4.48,27.06-8.46,4.71-14.69,12.24-17.1,21.45-2.46,9.19-.66,18.78,4.41,26.99-8.5,4.71-14.71,12.28-17.11,21.57-1.61,6.12-1.27,12.48.64,18.48-15.61-15.72-32.44-30.38-50.43-44,19.62-27.05,35.52-56.52,47.13-87.85l15.22,4c.84.25,1.72.29,2.66.3,3.75-.06,7.19-2.31,8.69-5.93l36.38-88.01c1.09-2.62.98-5.52-.26-8.03-1.26-2.48-3.47-4.28-6.14-5.01l-12.27-3.22c22.79-58.3,33.8-121.14,31.77-185.59-8-254.67-221.82-458.34-476.54-453.87l-6.66.13c-125.11,4.01-241.24,56.4-326.89,147.63-85.74,91.3-130.68,210.45-126.69,335.56,2.07,66.76,18.36,130.1,45.81,187.02-2.36.94-4.17,2.69-5.17,5.09-1.05,2.52-.93,5.44.24,7.96l41.87,85.55c1.71,3.51,5.22,5.56,8.91,5.47.9-.02,1.87-.16,2.81-.45l1.51-.53c14.77,32.07,34.12,61.78,57.33,88.44-2.95,2.74-5.88,5.41-8.76,8.19-89.84,85.8-137.29,197.65-133.56,314.98,1.23,38.75,8.13,77.03,20.49,113.79,1.15,3.42,4.02,5.9,7.6,6.46,2.28.39,229.3,35.56,477.69,43.51,17.81.59,35.67.71,53.46.41,183.66-3.21,381.95-53.08,401.54-76.15.29-.32.53-.64.77-.95,47.85-22.23,88.13-83.08,100.68-158.22,9.61-58.13.65-113.1-21.23-151.94,45.2-27.65,60.29-76.04,60.73-77.78,5.63-44.24-5.41-79.34-32.83-104.15"/>
    <path class="st1" d="M1353.42,975.18c-5.9-22.78-9.96-62.48,22.35-93.51.74-1.21,7-12.3,2.61-26.5-3.91-12.55-14.61-22.98-34.04-31.65-.56-.08-5.17-.96-12.13-.88-15.4.25-53.4,6.08-73.04,54.44-.6,1.33-11.5,28.69-6.58,60.98-5.36-.9-13.16-2.12-24.73-3.88-7.85-1.27-14.34-2.25-15.28-2.45-22.37-6.01-45.26,5.75-50.35,25.11-2.3,9.25-.61,18.84,4.48,27.06-8.46,4.71-14.69,12.24-17.1,21.45-2.46,9.19-.66,18.78,4.41,26.99-8.5,4.71-14.71,12.28-17.11,21.57-1.61,6.12-1.27,12.48.64,18.48-15.61-15.72-32.44-30.38-50.43-44,19.62-27.05,35.52-56.52,47.13-87.85l15.22,4c.84.25,1.72.29,2.66.3,3.75-.06,7.19-2.31,8.69-5.93l36.38-88.01c1.09-2.62.98-5.52-.26-8.03-1.26-2.48-3.47-4.28-6.14-5.01l-12.27-3.22c22.79-58.3,33.8-121.14,31.77-185.59-8-254.67-221.82-458.34-476.54-453.87l-6.66.13c-125.11,4.01-241.24,56.4-326.89,147.63-85.74,91.3-130.68,210.45-126.69,335.56,2.07,66.76,18.36,130.1,45.81,187.02-2.36.94-4.17,2.69-5.17,5.09-1.05,2.52-.93,5.44.24,7.96l41.87,85.55c1.71,3.51,5.22,5.56,8.91,5.47.9-.02,1.87-.16,2.81-.45l1.51-.53c14.77,32.07,34.12,61.78,57.33,88.44-2.95,2.74-5.88,5.41-8.76,8.19-89.84,85.8-137.29,197.65-133.56,314.98,1.23,38.75,8.13,77.03,20.49,113.79,1.15,3.42,4.02,5.9,7.6,6.46,2.28.39,229.3,35.56,477.69,43.51,17.81.59,35.67.71,53.46.41,183.66-3.21,381.95-53.08,401.54-76.15.29-.32.53-.64.77-.95,47.85-22.23,88.13-83.08,100.68-158.22,9.61-58.13.65-113.1-21.23-151.94,45.2-27.65,60.29-76.04,60.73-77.78,5.63-44.24-5.41-79.34-32.83-104.15Z"/>
    <path class="st13" d="M790.69,1534.34c210.75,6.82,431.33-53.63,447.27-72.38,36.15-42.48,14.18-73.43,12.88-112.07-7.41-236.87-227.53-422.29-491.88-413.97-264.08,8.29-472.25,207.03-464.79,444,1.27,38.6,8.11,75.84,20,110.99,0,0,225.82,35.43,476.51,43.43"/>
    <path class="st6" d="M843.77,1544.38h0c-17.8.31-35.65.19-53.47-.41-248.39-7.95-475.4-43.12-477.68-43.51-3.59-.56-6.46-3.05-7.61-6.46-12.35-36.75-19.25-75.03-20.48-113.79-3.73-117.32,43.72-229.18,133.56-314.98,89.51-85.5,210.46-134.87,340.63-138.95l7.73-.13c265-4.62,486.6,185.33,494.08,423.42.29,9.9,2.09,19.24,3.81,28.44,5.09,27.39,10.39,55.67-19.02,90.23-19.58,23.07-217.87,72.94-401.54,76.15M321.48,1482.29c36.99,5.51,244.44,35.17,469.42,42.44,17.5.51,35.04.63,52.49.37,198.74-3.47,374.65-56.66,387.31-69.48,23.31-27.46,19.46-48.02,14.63-74.05-1.89-10.15-3.79-20.43-4.17-31.39-7.1-227.63-219.91-409.22-474.35-404.78l-7.49.24c-125.4,3.91-241.81,51.27-327.95,133.54-85.78,81.95-131.08,188.61-127.58,300.44,1.13,34.91,7.08,69.43,17.69,102.67"/>
    <path class="st10" d="M664.57,1307.19c28.1-.84,44.57-16.39,43.97-32.85-.44-15.92-17.68-24.41-40.05-23.66-33.19.99-42.91,18.18-46.08,23.39-4.92,8.87-8.45,14.79-21.96,15.18-12.12.37-27.45-4.67-27.88-18.84-.69-21.88,34.55-55.72,95.14-57.59,52.93-1.64,90.82,21.92,91.97,58.95.9,29.49-23.65,43.86-33.03,49.33,10.8,4.37,39.19,15.52,40.33,51.67,1.41,43.04-41.61,73.65-94.88,75.26-58.19,1.79-103.02-30.84-103.79-53.16-.29-11.52,13.69-20.66,25.82-20.99,12.61-.34,19.44,5.99,28.26,15.83,7.22,7.84,14,13.73,29.6,17.67,4.48,1.2,11.1,2.46,18.54,2.26,15.82-.52,46.05-9.86,45.23-34.99-.7-24.04-27.79-31.49-45.58-30.94l-35.17,1.08c-16.3.51-23.57-10.21-23.93-18.01-.28-10.77,11.27-18.31,19.01-18.6l34.49-1Z"/>
    <path class="st10" d="M872.23,1245.41c31.7-1.04,42.64,17.53,43.25,37.42.51,13.3-5.3,40.34-38.89,41.4-35.33,1.11-42.99-22.05-43.46-38.63-.32-8.51.95-38.99,39.1-40.19M873.02,1441.75c37.44-3.81,57.96-9.32,76.66-33.42,19.15-24.5,23.21-59.92,22.17-92.6-.51-19.04-3.97-43.74-15.47-67.43-8.23-16.82-33.78-43.48-83.75-41.93-46.8,1.44-91.3,29.18-89.64,80.61,1.26,40.49,30.78,74.49,88.18,72.67,18.8-.55,29.66-4.65,35.48-7.09,7.63-3.43,11.16-7.03,14.4-10.64.14,16.17.37,60.7-45.61,62.13-14.31.53-26.21-1.76-42.2-17.74-11.4-11.78-16.92-11.87-22.85-11.7-9.87.33-24.85,5.68-24.45,18.7.24,6.05,2.6,12.92,10.67,21.36,22.11,23.58,51.24,25.81,76.37,27.09"/>
    <path class="st10" d="M1200.71,649.37c7.86,253.35-191.04,465.27-444.42,473.14-253.32,7.89-465.3-191-473.13-444.36-8.14-253.33,190.86-465.19,444.25-473.17,253.43-7.89,465.27,190.99,473.3,444.39"/>
    <path class="st6" d="M750.01,1132.3c-254.82,4.45-468.53-199.16-476.49-453.79-3.99-125.11,40.96-244.26,126.69-335.56,85.65-91.23,201.79-143.62,326.89-147.63l6.66-.13c254.71-4.47,468.54,199.2,476.54,453.87,3.9,125.13-41.11,244.35-126.75,335.52-85.74,91.29-201.81,143.7-326.97,147.6l-6.57.13ZM734.1,214.44l-6.37.18c-120.01,3.77-231.3,54.09-313.42,141.53-82.18,87.54-125.28,201.78-121.52,321.75,7.7,244.17,212.58,439.41,456.89,435.15l6.33-.15c119.94-3.77,231.27-54,313.44-141.51,82.11-87.51,125.35-201.75,121.57-321.69-7.73-244.28-212.67-439.52-456.92-435.26"/>
    <path class="st11" d="M1156.43,805.41c6.66,209.59-171.51,385.36-397.73,392.46-226.24,7.12-415.07-157.1-421.69-366.85-6.59-209.67,171.49-385.37,397.87-392.45,226.2-7.14,415.02,157.08,421.54,366.84"/>
    <path class="st14" d="M1129.07,767.55c6.7,211.81-159.68,388.92-371.48,395.61-211.76,6.59-388.83-159.64-395.65-371.54-6.51-211.85,159.66-388.86,371.55-395.49,211.79-6.7,388.98,159.64,395.58,371.42"/>
    <path class="st11" d="M752.33,1172.89c-213.69,3.8-393.21-167.14-400-380.99-6.72-216.78,164.07-398.66,380.83-405.43l5.58-.16c213.83-3.73,393.25,167.16,400,380.94,3.31,105.03-34.49,205-106.43,281.64-71.92,76.59-169.41,120.62-274.52,123.9l-5.46.09ZM739.09,405.61l-5.27.16c-206.18,6.41-368.53,179.38-362.19,385.54,6.5,203.34,177.18,365.81,380.38,362.3l5.25-.12c99.89-3.15,192.6-44.96,261.01-117.84,68.34-72.83,104.31-167.96,101.2-267.81-6.4-203.25-177.01-365.79-380.38-362.23"/>
    <polygon class="st10" points="1030.38 347.66 429.77 366.54 350.18 566.55 1135.28 541.89 1030.38 347.66"/>
    <path class="st9" d="M405.1,565.31c-21.22.72-24.05,10.79-6.27,22.37,0,0,168.06,109.95,343.96,104.43,175.9-5.57,336.64-125.68,336.64-125.68,17.01-12.75,13.66-22.65-7.53-21.97l-666.8,20.85Z"/>
    <path class="st11" d="M737.3,701.89c-174.8,3.05-336.85-101.61-343.66-106.08-15.95-10.43-17.28-19.91-15.64-26.04,1.77-6.05,7.81-13.42,26.77-14.1l666.82-20.81h.04c19.33-.34,25.54,6.54,27.51,12.38,2.08,6.02,1.31,15.51-13.83,26.89-6.71,4.98-165.24,122.05-342.3,127.61l-5.71.15ZM399,575.69c1.14.98,2.76,2.33,5.22,3.93,1.58,1.06,164.02,105.89,332.75,103.02l5.5-.2c170.75-5.37,329.6-122.6,331.25-123.8,2.31-1.72,3.85-3.15,4.94-4.23-1.38-.2-3.18-.36-5.56-.32l-667.71,20.86c-2.81.12-4.95.43-6.39.74"/>
    <polygon class="st9" points="1106.21 923.19 1151.93 935.2 1188.34 847.17 1134.34 832.97 1106.21 923.19"/>
    <path class="st11" d="M1152.13,944.85c-.94-.02-1.82-.06-2.66-.3l-45.72-11.98c-2.51-.66-4.66-2.34-5.95-4.66-1.27-2.3-1.53-5.04-.75-7.52l28.11-90.34c1.51-4.9,6.58-7.73,11.64-6.38l54,14.2c2.67.73,4.88,2.53,6.14,5.01,1.24,2.51,1.35,5.4.26,8.03l-36.38,88.01c-1.5,3.61-4.94,5.86-8.69,5.93M1118.46,916.46l27.7,7.26,28.99-70.03-34.36-9.05-22.33,71.82Z"/>
    <polygon class="st9" points="409.86 945.06 365.02 959.94 323.13 874.33 376.08 856.69 409.86 945.06"/>
    <path class="st11" d="M365.19,969.59c-3.7.1-7.2-1.96-8.91-5.47l-41.87-85.55c-1.18-2.51-1.29-5.44-.25-7.96,1.12-2.64,3.23-4.58,5.94-5.45l52.94-17.63c4.78-1.68,10.18.88,12.02,5.76l33.78,88.33c.95,2.48.84,5.19-.28,7.62-1.14,2.33-3.23,4.15-5.69,4.97l-44.89,14.92c-.94.29-1.91.43-2.8.45M336.63,880.06l33.34,68.04,27.22-9.01-26.84-70.32-33.72,11.29Z"/>
    <polygon class="st11" points="627.39 776.8 442.94 782.67 440.95 722.62 625.4 716.84 627.39 776.8"/>
    <path class="st11" d="M443.1,792.31c-5.34.09-9.7-4.08-9.84-9.35l-1.95-60.01c-.04-2.57.85-5.05,2.66-6.95,1.74-1.85,4.17-2.95,6.75-3l184.43-5.84c4.98.97,9.81,4.01,9.9,9.36l1.99,60c.15,2.55-.85,5.01-2.57,6.91-1.74,1.9-4.21,3.04-6.75,3.09l-184.55,5.73-.05.07ZM450.95,731.98l1.34,40.7,165.09-5.22-1.27-40.64-165.17,5.17Z"/>
    <polygon class="st11" points="1034.91 764.07 850.49 769.84 848.51 709.86 1033.05 703.98 1034.91 764.07"/>
    <path class="st11" d="M850.63,779.52c-5.27.13-9.67-4.1-9.81-9.35l-1.93-60.05c-.1-2.49.85-5.04,2.66-6.88,1.76-1.87,4.11-2.97,6.66-3.02l184.55-5.91c2.42.51,5.01.88,6.91,2.62,1.84,1.79,2.92,4.2,3.02,6.76l1.93,60.05c.12,5.4-4.01,9.84-9.43,9.97l-184.45,5.8h-.12ZM858.51,719.21l1.27,40.7,165.2-5.19-1.25-40.77-165.22,5.26Z"/>
    <path class="st11" d="M574.78,903.08c.45,15.01-11.35,27.49-26.25,27.97-15.04.5-27.53-11.2-28-26.28-.56-15.02,11.25-27.52,26.21-27.99,15-.45,27.46,11.32,28.03,26.3"/>
    <path class="st11" d="M973.75,890.53c.51,14.98-11.3,27.58-26.34,28.03-14.98.49-27.51-11.32-27.98-26.33-.42-14.98,11.35-27.56,26.3-27.94,14.98-.49,27.59,11.23,28.01,26.25"/>
    <path class="st7" d="M921.86,1061.79c.57,20.06-15.21,36.99-35.31,37.62l-261.62,8.19c-20.11.63-36.97-15.26-37.66-35.36l-.99-29.96c-.59-20.1,15.35-37.05,35.35-37.62l261.74-8.31c19.98-.59,36.96,15.35,37.61,35.45l.89,30Z"/>
    <path class="st11" d="M624.55,1117.26c-25.1.44-46.15-19.62-46.9-44.74l-.99-29.91c-.35-12.3,4.08-24.05,12.54-33.1,8.45-9.01,19.86-14.19,32.16-14.53l261.71-8.21c25.76-.45,46.76,19.57,47.51,44.73l.96,29.96c.76,25.47-19.26,46.84-44.7,47.56l-261.59,8.22s-.63.05-.7.01M884.07,1006.05l-262.13,8.23c-7.11.28-13.74,3.26-18.64,8.46-4.98,5.27-7.55,12.07-7.35,19.21l1.02,30c.46,14.58,12.64,26.29,27.25,26.04l.16,9.62.22-9.63,261.71-8.25c14.71-.48,26.36-12.9,25.94-27.69l-.9-29.96c-.5-14.63-12.69-26.29-27.28-26.04"/>
    <line class="st7" x1="633.83" y1="1051.45" x2="861.24" y2="1044.36"/>
    <path class="st11" d="M634,1061.07c-5.24.11-9.69-4.03-9.77-9.36-.21-5.31,3.97-9.78,9.32-9.91l227.37-7.09c4.51.04,9.85,4.01,9.98,9.39.15,5.27-4.03,9.75-9.35,9.9l-227.39,7.07c-.05,0-.12.05-.16,0"/>
    <path class="st11" d="M668.53,419.24c18.85-.8,29.94-12.15,30.49-24.74.22-12.3-9.69-18.38-23.84-18.04-20.97.8-28.62,13.53-31.17,17.57-4.1,6.79-7.06,11.05-16.15,11.4-8.12.21-16.89-3.45-15.17-14.38,3.52-16.92,28.41-41.67,64.8-43.36,31.95-.59,53.42,16.71,54.35,45.08.24,22.64-15.94,33.05-22.49,37.19,7.15,3.35,26.11,11.5,27.34,39.12.26,33.1-31.21,55.11-74.47,57.01-47.21.89-78.55-22.99-74.95-40.25,2.45-8.92,14.59-15.59,23.8-16.02,9.52-.2,13.46,4.46,18.83,12.06,4.55,6.05,8.8,10.31,20.5,13.33,3.37,1,8.12,1.94,13.88,1.79,12.17-.56,34.72-7.2,35.54-26.54.15-18.34-17.94-23.68-30.46-23.46-8.4.27-16.35.48-24.87.74-11.52.16-15.2-7.7-14.3-13.7,1.3-8.25,9.79-13.79,15.03-14.04,7.8-.24,15.33-.46,23.32-.75"/>
    <path class="st11" d="M803.01,373.3c20.11-.35,29.12,13.08,32.86,28.26,2.37,10.11,2.74,29.8-20.97,30.99-25.21.44-31.78-16.52-33.46-29.05-.93-6.74-2.64-28.96,21.58-30.2M825.58,520.93c31.77-2.98,49.89-7.05,61.09-25.27,10.79-18.89,3.82-44.6-5.04-69.33-5.28-14.5-13.16-32.47-24.97-50.57-8.58-12.77-27.14-32.33-57.43-31.91-28.09,1.27-52.92,20.98-50.63,60.41,2.53,30.94,23.25,55.72,66.46,54.97,14.08-.47,21.42-3.48,25.55-5.39,5.23-2.64,7.25-5.18,9.01-7.89,3.02,12.31,11,44.71-26.13,46.71-11.65.29-20.86-1.2-34.38-13.41-9.61-8.94-13.37-9.01-17.68-8.78-7.35.27-17.78,4.09-17.4,14.08.43,4.58,2.27,9.6,8.7,16.15,18.05,17.85,41.03,19.36,62.87,20.23"/>
    <path class="st11" d="M725.52,968.09c-2.12.07-4.29-.62-6.09-2.03l-26.44-20.59c-4.19-3.29-4.95-9.32-1.68-13.56,3.27-4.2,9.32-4.93,13.49-1.69l26.51,20.59c4.21,3.33,4.94,9.32,1.72,13.59-1.9,2.37-4.66,3.68-7.5,3.69"/>
    <path class="st11" d="M777.09,966.41c-2.69.04-5.47-1.06-7.43-3.25-3.54-4-3.11-10.1.86-13.62l25.07-22.21c3.89-3.5,10.06-3.21,13.64.89,3.56,3.96,3.16,10.06-.86,13.57l-25.06,22.21c-1.8,1.59-4.02,2.37-6.21,2.41"/>
    <path class="st13" d="M1110.77,1269.93c-16.1,97.77,21.41,185.41,83.87,195.79,62.46,10.36,126.23-60.52,142.56-158.21,16.21-97.82-21.39-185.51-83.88-195.87-62.49-10.31-126.27,60.53-142.55,158.29"/>
    <path class="st6" d="M1208.28,1476.38h0c-5.08.09-10.21-.24-15.29-1.1-67.59-11.23-108.75-104.08-91.72-206.93,16.94-101.88,85.29-177.63,153.64-166.26,67.75,11.28,108.86,104.06,91.85,206.98-15.76,94.33-75.21,166.21-138.48,167.31M1240.01,1120.32c-54.1.93-105.53,65.93-119.65,151.16-15.25,92.4,18.76,175.23,75.86,184.74,57.77,9.3,116.25-58.87,131.51-150.29,15.25-92.4-18.78-175.22-75.95-184.77-3.88-.63-7.88-.92-11.76-.84"/>
    <path class="st14" d="M1376.74,1078.11c6.09-48.64-9.93-78.81-31.88-97.59-6.01-21.53-13.86-69.28,22.71-103.81,0,0,14.93-25.21-25.14-43.75,0,0-50.68-10.1-74.35,47.78,0,0-13.74,33.65-2.98,69-2.38-.15-3.7-.24-3.7-.24-2.25-.9-48.86-7.82-51.23-8.44-17.45-4.57-34.74,3.63-38.54,18.22-2.8,10.89,2.58,22.27,12.67,29.2-12.2,1.15-22.5,8.42-25.31,19.3-2.9,10.94,2.62,22.25,12.65,29.2-12.25,1.15-22.49,8.48-25.36,19.33-3.17,12.08,4.02,24.69,16.34,31.38-14.02-.38-26.42,7.21-29.61,19.29-3.84,14.64,7.24,30.13,24.62,34.74,175.64,81.28,219.12-63.61,219.12-63.61"/>
    <path class="st13" d="M1113.27,1269.89c-16.1,97.77,21.38,185.41,83.87,195.79,62.46,10.36,126.27-60.52,142.52-158.21,16.29-97.83-21.35-185.52-83.84-195.88-62.49-10.31-126.27,60.53-142.55,158.29"/>
    <path class="st3" d="M1113.27,1269.89c-16.1,97.77,21.38,185.41,83.87,195.79,62.46,10.36,126.27-60.52,142.52-158.21,16.29-97.83-21.35-185.52-83.84-195.88-62.49-10.31-126.27,60.53-142.55,158.29Z"/>
    <path class="st14" d="M1379.23,1078.07c6.09-48.64-9.93-78.81-31.84-97.59-6.05-21.53-13.9-69.28,22.65-103.81,0,0,14.99-25.21-25.13-43.75,0,0-50.68-10.1-74.35,47.78,0,0-13.71,33.65-2.98,69-2.38-.15-3.7-.24-3.7-.24-2.25-.9-48.86-7.82-51.23-8.44-17.45-4.57-34.74,3.63-38.55,18.22-2.8,10.89,2.56,22.27,12.67,29.2-12.2,1.15-22.5,8.42-25.31,19.3-2.94,10.95,2.62,22.25,12.69,29.2-12.28,1.15-22.53,8.48-25.43,19.33-3.17,12.08,4.08,24.69,16.41,31.38-14.1-.38-26.46,7.21-29.68,19.29-3.8,14.64,7.28,30.13,24.69,34.74,175.61,81.28,219.08-63.61,219.08-63.61"/>
    <path class="st2" d="M1379.23,1078.07c6.09-48.64-9.93-78.81-31.84-97.59-6.05-21.53-13.9-69.28,22.65-103.81,0,0,14.99-25.21-25.13-43.75,0,0-50.68-10.1-74.35,47.78,0,0-13.71,33.65-2.98,69-2.38-.15-3.7-.24-3.7-.24-2.25-.9-48.86-7.82-51.23-8.44-17.45-4.57-34.74,3.63-38.55,18.22-2.8,10.89,2.56,22.27,12.67,29.2-12.2,1.15-22.5,8.42-25.31,19.3-2.94,10.95,2.62,22.25,12.69,29.2-12.28,1.15-22.53,8.48-25.43,19.33-3.17,12.08,4.08,24.69,16.41,31.38-14.1-.38-26.46,7.21-29.68,19.29-3.8,14.64,7.28,30.13,24.69,34.74,175.61,81.28,219.08-63.61,219.08-63.61Z"/>
    <path class="st6" d="M1257.8,1176.07h0c-31.23.55-66.3-8.02-104.21-25.59-20.92-5.38-35.06-26.18-29.97-45.93,2.64-9.74,9.53-17.67,18.83-22.19-5.86-8.57-8.07-18.8-5.53-28.45,2.41-9.29,8.61-16.86,17.11-21.57-5.07-8.21-6.87-17.8-4.41-26.99,2.41-9.2,8.64-16.74,17.1-21.45-5.09-8.22-6.78-17.81-4.48-27.06,5.09-19.36,27.98-31.13,50.35-25.12.94.21,7.43,1.19,15.28,2.46,11.57,1.76,19.37,2.98,24.73,3.87-4.92-32.29,5.98-59.65,6.58-60.98,19.63-48.35,57.63-54.18,73.04-54.44,6.95-.08,11.57.81,12.13.88,19.43,8.67,30.12,19.1,34.04,31.64,4.4,14.2-1.86,25.3-2.61,26.5-32.3,31.03-28.24,70.73-22.35,93.51,27.42,24.81,38.46,59.92,32.82,104.15-.58,2.47-29.47,95-128.45,96.73M1162.38,1097.35c-10.58.19-18.19,5.04-20.09,12.1-2.42,9.41,5.5,19.73,17.77,22.92,36.89,16.88,69.12,24.91,97.4,24.41,84.62-1.48,108.94-78.23,110.01-81.47,4.54-37.05-5.04-67.02-28.89-87.53-1.45-1.15-2.48-2.89-2.98-4.66-6.03-21.15-15.51-74.34,24.73-112.98-.4,0,1.21-4.29-.48-9.52-2.22-6.8-9.41-13.14-20.82-18.49-.05.15-2.86-.2-6.49-.13-14.36.25-40.68,6.11-55.51,42.37-.15.22-12.23,31.07-2.72,62.64.97,3,.3,6.24-1.62,8.79-2.06,2.44-5.24,3.82-8.21,3.64-1.13-.07-6.02-.61-7.05-1.09-2.11-.43-19.33-3.1-32.57-5.15-8.84-1.27-16.08-2.46-17.04-2.69-12.75-3.4-24.48,2.27-26.82,11.24-1.75,6.52,1.7,13.98,8.78,18.79,3.31,2.36,4.87,6.51,3.81,10.4-1.08,3.96-4.41,6.75-8.39,7.17-8.58.81-15.21,5.57-16.92,12.23-1.72,6.43,1.75,13.77,8.83,18.67,3.32,2.32,4.89,6.48,3.84,10.4-1.06,3.88-4.45,6.83-8.46,7.17-8.56.81-15.12,5.61-16.88,12.23-1.94,7.27,2.89,15.6,11.63,20.38,3.94,2.12,5.93,6.64,4.78,10.96-1.1,4.31-4.54,6.92-9.61,7.19h-.03Z"/>
  </g></svg>